<?xml version="1.0" encoding="UTF-8" standalone="no"?>
<!-- Generator: Adobe Illustrator 14.0.0, SVG Export Plug-In . SVG Version: 6.00 Build 43363)  -->
<svg
   xmlns:dc="http://purl.org/dc/elements/1.1/"
   xmlns:cc="http://web.resource.org/cc/"
   xmlns:rdf="http://www.w3.org/1999/02/22-rdf-syntax-ns#"
   xmlns:svg="http://www.w3.org/2000/svg"
   xmlns="http://www.w3.org/2000/svg"
   xmlns:sodipodi="http://sodipodi.sourceforge.net/DTD/sodipodi-0.dtd"
   xmlns:inkscape="http://www.inkscape.org/namespaces/inkscape"
   version="1.0"
   id="Layer_1"
   x="0px"
   y="0px"
   width="752"
   height="175"
   viewBox="0 0 667.275 913.89"
   enable-background="new 0 0 667.275 913.89"
   xml:space="preserve"
   sodipodi:version="0.32"
   inkscape:version="0.45.1">

<polyline
   style="fill:#d71920"
   points="64.517,71.057 62.853,71.057 66.267,65.936 68.741,65.936 68.741,71.068 67.128,71.068   67.128,70.042 65.143,70.042 64.517,71.057 "
   id="polyline7"
   transform="matrix(44.337764,0,0,44.337764,-4388.7048,-2407.1415)" /><polyline
   style="fill:#ffffff"
   points="67.239,67.19 67.239,68.82 65.943,68.82 66.915,67.2 67.239,67.19 "
   id="polyline9"
   transform="matrix(44.337764,0,0,44.337764,-4388.7048,-2407.1415)" /><polyline
   style="fill:#d71920"
   points="83.098,71.036 81.434,71.036 84.848,65.915 87.323,65.915 87.323,71.047 85.71,71.047   85.71,70.021 83.725,70.021 83.098,71.036 "
   id="polyline11"
   transform="matrix(44.337764,0,0,44.337764,-4388.7048,-2407.1415)" /><polyline
   style="fill:#ffffff"
   points="85.82,67.169 85.82,68.799 84.523,68.799 85.495,67.179 85.82,67.169 "
   id="polyline13"
   transform="matrix(44.337764,0,0,44.337764,-4388.7048,-2407.1415)" /><polyline
   style="fill:#d71920"
   points="69.72,71.046 71.244,71.046 72.572,65.947 70.984,65.947 69.72,71.046 "
   id="polyline15"
   transform="matrix(44.337764,0,0,44.337764,-4388.7048,-2407.1415)" /><polyline
   style="fill:#d71920"
   points="111.789,70.983 113.312,70.983 114.641,65.882 113.053,65.882 111.789,70.983 "
   id="polyline17"
   transform="matrix(44.337764,0,0,44.337764,-4388.7048,-2407.1415)" /><path
   style="fill:#d71920"
   d="M -905.53006,579.5833 C -905.53006,579.5833 -902.64811,525.00351 -954.39028,515.86993 L -1120.1248,515.38221 L -1180.6015,742.92362 L -1109.6611,742.92362 L -1086.6055,659.56862 L -1076.4965,659.56862 L -1006.2211,742.92362 L -925.74808,742.92362 L -994.11691,650.43504 C -994.11691,650.43504 -911.73735,659.03657 -905.53006,579.5833 M -1006.1324,614.52145 L -1076.2748,615.00917 L -1064.0376,565.08485 L -1007.6399,563.9764 L -1007.6399,564.50846 C -1007.1079,564.50846 -1006.6645,564.24243 -1006.1324,564.24243 C -991.01327,564.24243 -978.82038,575.50422 -978.82038,589.38194 C -978.82038,603.304 -991.01327,614.52145 -1006.1324,614.52145 z "
   id="path19" /><path
   style="fill:#d71920"
   d="M 544.4035,578.16449 C 544.4035,578.16449 547.28545,523.5847 495.54328,514.40678 L 329.85306,513.91907 L 269.37635,741.46047 L 340.27243,741.46047 L 363.37241,658.10548 L 373.39274,658.10548 L 443.75677,741.46047 L 524.22982,741.46047 L 455.86098,649.06057 C 455.86098,649.06057 538.24055,657.61776 544.4035,578.16449 M 443.80111,613.10265 L 373.70311,613.59036 L 385.94033,563.66604 L 442.29363,562.55759 L 442.29363,563.13399 C 442.87002,563.04531 443.3134,562.77928 443.80111,562.77928 C 458.87595,562.77928 471.11317,574.08541 471.11317,587.9188 C 471.11317,601.88519 458.87595,613.10265 443.80111,613.10265 z "
   id="path21" /><polyline
   style="fill:#d71920"
   points="88.335,71.046 89.534,65.947 91.222,65.947 90.304,69.696 92.616,69.696 92.322,71.046   88.335,71.046 "
   id="polyline23"
   transform="matrix(44.337764,0,0,44.337764,-4388.7048,-2407.1415)" /><path
   style="fill:#d71920"
   d="M 7.9608915,525.09218 C 7.9608915,525.09218 -234.16764,454.5508 -257.17894,642.05521 C -257.17894,642.05521 -267.19927,813.8197 -41.608729,723.54802 L -16.469216,621.17212 L -95.745138,620.99477 L -112.0171,688.43251 C -112.0171,688.43251 -183.13487,715.25685 -181.00666,648.79455 C -181.00666,648.79455 -182.42547,551.34014 -7.8233525,581.5785 L 7.9608915,525.09218"
   id="path25" /><polyline
   style="fill:#d71920"
   points="100.541,65.926 101.902,65.926 102.42,65.311 104.268,65.311 103.894,65.942 105.336,65.942   105.062,67.028 101.756,67.045 101.61,67.742 104.624,67.806 104.381,68.907 101.383,68.876 101.237,69.653 104.397,69.653   104.057,70.999 99.277,70.999 100.541,65.926 "
   id="polyline27"
   transform="matrix(44.337764,0,0,44.337764,-4388.7048,-2407.1415)" /><polyline
   style="fill:#d71920"
   points="115.908,65.861 120.834,65.861 120.531,67.076 117.096,67.076 116.902,67.804 119.862,67.804   119.668,68.93 116.664,68.974 116.47,69.679 119.819,69.679 119.603,71.005 114.676,71.005 115.908,65.861 "
   id="polyline29"
   transform="matrix(44.337764,0,0,44.337764,-4388.7048,-2407.1415)" /><polyline
   style="fill:#d71920"
   points="120.473,58.061 121.575,58.061 120.699,62.42 119.599,62.42 120.473,58.061 "
   id="polyline31"
   transform="matrix(44.337764,0,0,44.337764,-4388.7048,-2407.1415)" /><polyline
   style="fill:#d71920"
   points="118.798,58.082 119.868,58.082 119.025,62.441 110.064,62.441 109.788,63.803 105.835,63.803   105.915,62.928 108.865,62.928 108.946,62.441 107.212,62.441 107.682,59.978 110.518,59.978 110.307,61.436 111.555,61.436   111.847,59.978 113.144,59.978 113.354,58.082 114.585,58.082 114.374,59.93 115.493,59.93 115.347,61.436 118.15,61.436   118.248,60.854 116.676,60.854 116.74,59.978 118.425,59.978 118.798,58.082 "
   id="polyline33"
   transform="matrix(44.337764,0,0,44.337764,-4388.7048,-2407.1415)" /><polyline
   style="fill:#ffffff"
   points="112.851,60.821 114.197,60.821 114.147,61.404 112.77,61.404 112.851,60.821 "
   id="polyline35"
   transform="matrix(44.337764,0,0,44.337764,-4388.7048,-2407.1415)" /><polyline
   style="fill:#ffffff"
   points="108.573,60.854 109.302,60.854 109.205,61.436 108.444,61.436 108.573,60.854 "
   id="polyline37"
   transform="matrix(44.337764,0,0,44.337764,-4388.7048,-2407.1415)" /><polyline
   style="fill:#d71920"
   points="117.129,58.779 118.262,58.779 118.102,59.654 116.934,59.654 117.129,58.779 "
   id="polyline39"
   transform="matrix(44.337764,0,0,44.337764,-4388.7048,-2407.1415)" /><polyline
   style="fill:#d71920"
   points="75.315,59.902 76.448,59.902 76.287,60.777 75.121,60.777 75.315,59.902 "
   id="polyline41"
   transform="matrix(44.337764,0,0,44.337764,-4388.7048,-2407.1415)" /><polyline
   style="fill:#d71920"
   points="77.206,62.884 78.339,62.884 78.178,63.759 77.012,63.759 77.206,62.884 "
   id="polyline43"
   transform="matrix(44.337764,0,0,44.337764,-4388.7048,-2407.1415)" /><polyline
   style="fill:#d71920"
   points="104.057,58.061 105.304,58.061 104.98,59.957 106.293,59.957 105.822,62.42 100.475,62.42   100.703,61.415 102.063,61.415 102.354,59.957 103.733,59.957 104.025,58.061 "
   id="polyline45"
   transform="matrix(44.337764,0,0,44.337764,-4388.7048,-2407.1415)" /><polyline
   style="fill:#ffffff"
   points="103.538,60.833 104.835,60.833 104.737,61.416 103.425,61.416 103.538,60.833 "
   id="polyline47"
   transform="matrix(44.337764,0,0,44.337764,-4388.7048,-2407.1415)" /><polyline
   style="fill:#d71920"
   points="98.142,62.463 97.008,62.463 97.915,58.104 99.001,58.104 98.142,62.463 "
   id="polyline49"
   transform="matrix(44.337764,0,0,44.337764,-4388.7048,-2407.1415)" /><polyline
   style="fill:#d71920"
   points="81.208,62.454 80.073,62.454 80.98,58.094 82.066,58.094 81.208,62.454 "
   id="polyline51"
   transform="matrix(44.337764,0,0,44.337764,-4388.7048,-2407.1415)" /><polyline
   style="fill:#d71920"
   points="73.241,62.42 72.107,62.42 73.013,58.061 74.1,58.061 73.241,62.42 "
   id="polyline53"
   transform="matrix(44.337764,0,0,44.337764,-4388.7048,-2407.1415)" /><polyline
   style="fill:#d71920"
   points="97.418,58.061 96.525,62.42 92.847,62.42 92.572,63.782 88.861,63.782 89.023,62.906 91.73,62.906   91.827,62.42 90.159,62.42 90.645,59.957 93.398,59.957 93.139,61.415 95.522,61.415 95.683,60.833 94.647,60.833 94.841,59.957   95.846,59.957 96.316,58.061 97.418,58.061 "
   id="polyline55"
   transform="matrix(44.337764,0,0,44.337764,-4388.7048,-2407.1415)" /><polyline
   style="fill:#ffffff"
   points="91.428,60.935 92.158,60.935 92.06,61.518 91.299,61.518 91.428,60.935 "
   id="polyline57"
   transform="matrix(44.337764,0,0,44.337764,-4388.7048,-2407.1415)" /><polyline
   style="fill:#d71920"
   points="94.058,63.76 94.221,62.885 95.322,62.885 95.144,63.76 94.058,63.76 "
   id="polyline59"
   transform="matrix(44.337764,0,0,44.337764,-4388.7048,-2407.1415)" /><polyline
   style="fill:#d71920"
   points="83.936,59.962 86.527,59.962 86.269,61.372 87.68,61.372 88.036,59.962 89.154,59.962   88.62,62.425 84.892,62.425 84.94,62.052 83.434,62.052 83.936,59.962 "
   id="polyline61"
   transform="matrix(44.337764,0,0,44.337764,-4388.7048,-2407.1415)" /><polyline
   style="fill:#ffffff"
   points="84.569,60.886 85.281,60.886 85.216,61.404 84.471,61.404 84.569,60.886 "
   id="polyline63"
   transform="matrix(44.337764,0,0,44.337764,-4388.7048,-2407.1415)" /><polyline
   style="fill:#d71920"
   points="62.724,59.974 65.317,59.974 65.058,61.384 66.468,61.384 66.824,59.974 67.942,59.974   67.408,62.436 63.682,62.436 63.729,62.064 62.222,62.064 62.724,59.974 "
   id="polyline65"
   transform="matrix(44.337764,0,0,44.337764,-4388.7048,-2407.1415)" /><polyline
   style="fill:#ffffff"
   points="63.582,60.777 64.295,60.777 64.231,61.296 63.484,61.296 63.582,60.777 "
   id="polyline67"
   transform="matrix(44.337764,0,0,44.337764,-4388.7048,-2407.1415)" /><polyline
   style="fill:#d71920"
   points="86.529,59.477 86.695,58.602 84.304,58.602 84.087,59.477 86.529,59.477 "
   id="polyline69"
   transform="matrix(44.337764,0,0,44.337764,-4388.7048,-2407.1415)" /><polyline
   style="fill:#d71920"
   points="65.312,59.449 65.477,58.574 63.086,58.574 62.87,59.449 65.312,59.449 "
   id="polyline71"
   transform="matrix(44.337764,0,0,44.337764,-4388.7048,-2407.1415)" /><polyline
   style="fill:#d71920"
   points="67.224,63.743 67.385,62.859 65.068,62.859 64.858,63.743 67.224,63.743 "
   id="polyline73"
   transform="matrix(44.337764,0,0,44.337764,-4388.7048,-2407.1415)" /><polyline
   style="fill:#d71920"
   points="88.339,63.759 88.501,62.884 86.183,62.884 85.973,63.759 88.339,63.759 "
   id="polyline75"
   transform="matrix(44.337764,0,0,44.337764,-4388.7048,-2407.1415)" /><polyline
   style="fill:#d71920"
   points="80.338,58.061 79.462,62.42 75.816,62.42 75.541,63.782 73.045,63.782 73.175,62.906   74.585,62.906 74.908,61.415 78.473,61.415 78.605,60.833 77.469,60.833 77.598,59.957 78.895,59.957 79.333,58.061 80.338,58.061   "
   id="polyline77"
   transform="matrix(44.337764,0,0,44.337764,-4388.7048,-2407.1415)" /><polyline
   style="fill:#d71920"
   points="70.922,60.243 71.96,60.222 71.549,62.296 70.49,62.317 70.144,63.743 67.681,63.809   67.833,62.837 69.28,62.837 69.56,61.453 70.728,61.453 70.922,60.243 "
   id="polyline79"
   transform="matrix(44.337764,0,0,44.337764,-4388.7048,-2407.1415)" /><polyline
   style="fill:#d71920"
   points="70.783,59.649 72.031,59.649 72.257,58.611 72.403,58.611 72.435,58.239 71.512,58.207   71.284,59.26 70.863,59.308 70.783,59.649 "
   id="polyline81"
   transform="matrix(44.337764,0,0,44.337764,-4388.7048,-2407.1415)" /><path
   style="fill:#d71920"
   d="M 2297.164,456.94504 C 2297.164,204.57449 2028.8762,4.5324e-005 1697.9391,4.5324e-005 C 1367.002,4.5324e-005 1098.7142,204.57449 1098.7142,456.94504 C 1098.7142,709.31559 1367.002,913.89004 1697.9391,913.89004 C 2028.8762,913.89004 2297.164,709.31559 2297.164,456.94504"
   id="path83" /><path
   style="fill:#ffffff"
   d="M 1414.6651,96.434682 C 1414.6651,96.434682 1520.9871,145.69394 1597.6471,231.97523 C 1597.6471,231.97523 1752.8736,397.88714 1782.6242,413.05065 C 1782.6242,413.05065 1720.3297,456.67901 1459.668,209.22995 C 1459.668,209.22995 1299.653,337.23308 1291.9825,443.37769 L 2265.5512,443.37769 L 2266.5709,476.58667 L 1290.1204,476.58667 C 1290.1204,476.58667 1297.7464,569.47429 1446.3223,707.94112 C 1446.3223,707.94112 1663.799,516.40198 1783.5997,498.35651 L 1790.2947,497.42542 C 1790.2947,497.42542 1710.7527,564.77448 1657.9908,624.54179 C 1657.9908,624.54179 1510.479,778.08347 1403.1816,815.06116 C 1403.1816,815.06116 1007.3784,646.26729 1171.2065,302.11757 C 1171.2065,302.11757 1228.3135,182.22826 1414.6651,96.434682"
   id="path85" /><path
   style="fill:#ffffff"
   d="M 1590.553,36.445687 C 2196.9163,-24.784765 2264.7974,428.92357 2264.7974,428.92357 C 2264.7974,428.92357 2079.9533,466.38898 1898.8335,257.11474 C 1898.8335,257.11474 1787.457,138.33387 1755.4008,113.85942 C 1755.4008,113.85942 1698.7815,55.466588 1613.6974,42.120921 L 1590.553,36.445687"
   id="path87" /><path
   style="fill:#ffffff"
   d="M 1593.3907,874.5181 C 2199.8426,934.46276 2267.635,490.50873 2267.635,490.50873 C 2267.635,490.50873 2082.7909,453.88574 1901.7155,658.54885 C 1901.7155,658.54885 1790.2947,774.75813 1758.2385,798.7892 C 1758.2385,798.7892 1701.6635,855.89624 1616.5793,868.97588 L 1593.3907,874.5181"
   id="path89" /><polyline
   style="fill:#ffffff"
   points="116.676,60.854 117.161,58.698 116.934,58.714 116.432,60.87 116.642,60.854 "
   id="polyline91"
   transform="matrix(44.337764,0,0,44.337764,-4388.7048,-2407.1415)" />
<line
   x1="-2.532064"
   y1="747.51294"
   x2="544.52094"
   y2="747.51294"
   id="line93"
   style="fill:#231f20" />




</svg>