<?xml version="1.0" encoding="utf-8"?>
<!-- Generator: Adobe Illustrator 17.0.0, SVG Export Plug-In . SVG Version: 6.00 Build 0)  -->
<!DOCTYPE svg PUBLIC "-//W3C//DTD SVG 1.1//EN" "http://www.w3.org/Graphics/SVG/1.1/DTD/svg11.dtd">
<svg version="1.1" id="Layer_1" xmlns="http://www.w3.org/2000/svg" xmlns:xlink="http://www.w3.org/1999/xlink" x="0px" y="0px"
	 width="168.615px" height="39.861px" viewBox="0 0 168.615 39.861" enable-background="new 0 0 168.615 39.861"
	 xml:space="preserve">
<g>
	<path fill="#54B848" d="M166.759,9.807c1.079,0,1.913,0.823,1.913,1.87c0,1.068-0.834,1.892-1.924,1.892
		c-1.078,0-1.937-0.823-1.937-1.892c0-1.047,0.859-1.87,1.937-1.87H166.759z M166.736,10.136c-0.859,0-1.508,0.693-1.508,1.542
		c0,0.866,0.648,1.551,1.53,1.551c0.858,0.012,1.495-0.685,1.495-1.539c0-0.861-0.637-1.554-1.506-1.554H166.736z M166.41,12.71
		h-0.371v-1.96c0.199-0.046,0.417-0.062,0.685-0.062c0.337,0,0.499,0.062,0.638,0.15c0.116,0.084,0.198,0.236,0.198,0.411
		c0,0.244-0.18,0.406-0.396,0.471v0.023c0.182,0.074,0.277,0.225,0.336,0.469c0.06,0.309,0.094,0.429,0.141,0.498h-0.377
		c-0.064-0.069-0.104-0.248-0.156-0.522c-0.047-0.209-0.18-0.301-0.465-0.301h-0.232V12.71z M166.41,11.605h0.244
		c0.273,0,0.51-0.082,0.51-0.321c0-0.187-0.115-0.314-0.475-0.314c-0.139,0-0.227,0.012-0.279,0.024V11.605z"/>
	<path fill="#54B848" d="M79.587,30.669c0,2.892-1.612,5.524-4.21,6.865c-6.046,3.102-14.82,3.102-20.852,0
		c-2.607-1.341-4.219-3.973-4.219-6.865v-6.878c0-2.894,1.611-5.526,4.215-6.86h0.004c6.031-3.108,14.806-3.108,20.852,0
		c2.598,1.334,4.21,3.966,4.21,6.86V30.669z M55.848,23.791v6.878c0,0.862,0.464,1.605,1.236,2.007
		c4.411,2.266,11.317,2.266,15.729,0c0.766-0.402,1.229-1.145,1.229-2.007v-6.878c0-0.856-0.463-1.606-1.229-2
		c-4.412-2.273-11.318-2.273-15.729,0C56.312,22.185,55.848,22.935,55.848,23.791"/>
	<path fill="#54B848" d="M89.142,21.792c4.406-2.273,11.318-2.273,15.726,0c0.775,0.393,1.229,1.143,1.229,2v6.878
		c0,0.862-0.453,1.605-1.229,2.007c-4.407,2.266-11.319,2.266-15.726,0c-0.771-0.402-1.229-1.145-1.229-2.007v-6.878
		C87.913,22.935,88.371,22.185,89.142,21.792 M82.365,30.669c0,2.892,1.617,5.524,4.215,6.865c6.041,3.102,14.809,3.102,20.85,0
		c2.598-1.341,4.222-3.973,4.222-6.865v-6.878c0-2.894-1.624-5.526-4.222-6.86c-5.605-2.887-13.568-3.085-19.517-0.614v-6.17
		c0-0.092-0.041-0.179-0.099-0.243c-0.064-0.059-0.156-0.098-0.248-0.098c-0.049,0-0.094,0.004-0.141,0.027l-4.639,2.291
		c-0.081,0.029-0.154,0.086-0.225,0.143c-0.123,0.128-0.197,0.298-0.197,0.488V30.669z"/>
	<path fill="#54B848" d="M136.619,12.861c0,0.546-0.313,1.044-0.8,1.298c-1.142,0.587-2.807,0.587-3.948,0
		c-0.494-0.254-0.801-0.752-0.801-1.298v-1.315c0-0.545,0.307-1.044,0.801-1.297c1.142-0.587,2.807-0.587,3.948,0
		c0.487,0.253,0.8,0.753,0.8,1.297V12.861z"/>
	<path fill="#54B848" d="M119.976,12.861c0,0.546-0.313,1.044-0.799,1.298c-1.148,0.587-2.807,0.587-3.955,0
		c-0.486-0.254-0.799-0.752-0.799-1.298v-1.315c0-0.545,0.313-1.044,0.799-1.297c1.148-0.587,2.807-0.587,3.955,0
		c0.486,0.253,0.799,0.753,0.799,1.297V12.861z"/>
	<path fill="#54B848" d="M128.293,38.153c0,0.187-0.151,0.337-0.348,0.337h-4.848c-0.197,0-0.359-0.15-0.359-0.337V12.769
		c0-0.197,0.081-0.371,0.209-0.491c0.068-0.058,0.139-0.112,0.226-0.146l4.643-2.289c0.035-0.019,0.082-0.03,0.129-0.03
		c0.092,0,0.186,0.042,0.244,0.104c0.068,0.058,0.104,0.152,0.104,0.244V38.153z"/>
	<path fill="#54B848" d="M131.07,18.915c0-0.186,0.076-0.358,0.203-0.48c0.064-0.065,0.135-0.112,0.219-0.146l4.639-2.295
		c0.047-0.013,0.094-0.025,0.141-0.025c0.093,0,0.185,0.043,0.243,0.101c0.065,0.063,0.104,0.15,0.104,0.244v21.84
		c0,0.187-0.155,0.337-0.348,0.337h-4.852c-0.193,0-0.35-0.15-0.35-0.337V18.915z"/>
	<path fill="#54B848" d="M119.976,18.915c0-0.186-0.085-0.358-0.208-0.48c-0.058-0.065-0.139-0.112-0.22-0.146l-4.65-2.295
		c-0.033-0.013-0.081-0.025-0.127-0.025c-0.093,0-0.186,0.043-0.243,0.101c-0.072,0.063-0.104,0.15-0.104,0.244v21.84
		c0,0.187,0.15,0.337,0.348,0.337h4.858c0.187,0,0.347-0.15,0.347-0.337V18.915z"/>
	<path fill="#54B848" d="M5.608,23.791c0-0.856,0.456-1.606,1.228-2c3.924-2.02,9.826-2.239,14.186-0.662v17.023
		c0,0.187,0.152,0.337,0.344,0.337h4.852c0.197,0,0.355-0.15,0.355-0.337V21.13c4.354-1.577,10.257-1.358,14.175,0.662
		c0.774,0.393,1.231,1.143,1.231,2v14.362c0,0.187,0.157,0.337,0.347,0.337h4.859c0.186,0,0.347-0.15,0.347-0.337V23.791
		c0-2.894-1.616-5.526-4.213-6.86c-5.613-2.887-13.575-3.089-19.524-0.614c-5.949-2.475-13.909-2.273-19.522,0.614
		c-2.598,1.334-4.216,3.966-4.216,6.86v14.362c0,0.187,0.158,0.337,0.342,0.337h4.852c0.198,0,0.356-0.15,0.356-0.337V23.791z"/>
	<path fill="#54B848" d="M139.391,23.791c0-2.894,1.611-5.526,4.221-6.86c6.037-3.108,14.808-3.108,20.851,0
		c1.971,1.016,3.375,2.768,3.943,4.824h-6.588c-4.411-2.231-11.26-2.22-15.648,0.036c-0.772,0.393-1.229,1.143-1.229,2v0.703h23.383
		c0.197,0,0.348,0.149,0.348,0.335v5.84c0,2.892-1.611,5.524-4.209,6.865c-6.043,3.102-14.81,3.102-20.851,0
		c-1.972-1.016-3.376-2.772-3.943-4.825h6.575c4.418,2.227,11.273,2.22,15.656-0.034c0.764-0.402,1.229-1.145,1.229-2.007v-0.694
		h-23.391c-0.189,0-0.347-0.159-0.347-0.345V23.791z"/>
	<path fill="#BA2B31" d="M48.172,9.382c0,0.134-0.082,0.255-0.197,0.313c-0.279,0.147-0.678,0.147-0.951,0
		c-0.128-0.058-0.197-0.178-0.197-0.313V9.068c0-0.138,0.069-0.254,0.197-0.313c0.274-0.149,0.672-0.149,0.951,0
		c0.115,0.059,0.197,0.174,0.197,0.313V9.382z"/>
	<path fill="#BA2B31" d="M42.767,9.382c0,0.134-0.081,0.255-0.196,0.313c-0.279,0.147-0.673,0.147-0.952,0
		c-0.121-0.058-0.197-0.178-0.197-0.313V9.068c0-0.138,0.076-0.254,0.197-0.313c0.279-0.149,0.673-0.149,0.952,0
		c0.116,0.059,0.196,0.174,0.196,0.313V9.382z"/>
	<path fill="#BA2B31" d="M44.78,9.382c0,0.134-0.076,0.255-0.203,0.313c-0.268,0.147-0.673,0.147-0.952,0
		c-0.116-0.058-0.186-0.178-0.186-0.313V9.068c0-0.138,0.07-0.254,0.186-0.313c0.278-0.149,0.684-0.149,0.952,0
		c0.127,0.059,0.203,0.174,0.203,0.313V9.382z"/>
	<path fill="#BA2B31" d="M33.972,9.382c0,0.134-0.077,0.255-0.196,0.313c-0.279,0.147-0.681,0.147-0.958,0
		c-0.116-0.058-0.19-0.178-0.19-0.313V9.068c0-0.138,0.074-0.254,0.19-0.313c0.277-0.149,0.679-0.149,0.958,0
		c0.12,0.059,0.196,0.174,0.196,0.313V9.382z"/>
	<path fill="#BA2B31" d="M35.984,9.382c0,0.134-0.075,0.255-0.191,0.313c-0.277,0.147-0.68,0.147-0.969,0
		c-0.109-0.058-0.186-0.178-0.186-0.313V9.068c0-0.138,0.077-0.254,0.186-0.313c0.289-0.149,0.691-0.149,0.969,0
		c0.117,0.059,0.191,0.174,0.191,0.313V9.382z"/>
	<path fill="#BA2B31" d="M56.591,7.256c0.706,0.139,1.507,0.05,2.11-0.256c0.111-0.057,0.209-0.134,0.284-0.226
		c1.467,0.731,3.562,0.731,5.011-0.012c0.631-0.325,1.014-0.963,1.014-1.662V3.433c0-0.697-0.383-1.333-1.014-1.658
		c-1.363-0.696-3.29-0.742-4.727-0.144V1.295c0-0.023-0.004-0.042-0.023-0.054c-0.012-0.023-0.035-0.035-0.059-0.035
		c0,0-0.022,0.012-0.033,0.012l-1.119,0.557c-0.023,0.012-0.041,0.019-0.053,0.034c-0.035,0.03-0.047,0.069-0.047,0.116v3.792
		c0,0.07-0.035,0.128-0.086,0.151c-0.332,0.169-0.842,0.169-1.166,0c-0.059-0.023-0.093-0.081-0.093-0.151V3.433
		c0-0.697-0.388-1.333-1.014-1.658c-1.469-0.754-3.579-0.754-5.04,0c-0.631,0.325-1.031,0.961-1.031,1.658v1.666
		c0,0.699,0.4,1.337,1.031,1.662c1.352,0.696,3.281,0.743,4.72,0.146v0.677c0,0.208-0.116,0.383-0.302,0.483
		c-1.061,0.545-2.719,0.549-3.785,0.004h-1.596c0.14,0.499,0.486,0.922,0.963,1.171c1.461,0.754,3.571,0.754,5.04,0
		c0.626-0.325,1.014-0.964,1.014-1.659V7.256z M55.257,5.099c0,0.202-0.116,0.387-0.302,0.486c-1.066,0.55-2.736,0.55-3.803,0
		c-0.186-0.1-0.295-0.285-0.295-0.486V3.433c0-0.202,0.109-0.382,0.295-0.476c1.066-0.555,2.736-0.555,3.803,0
		c0.185,0.094,0.302,0.274,0.302,0.476V5.099z M63.676,5.099c0,0.202-0.115,0.387-0.301,0.486c-1.067,0.55-2.736,0.55-3.803,0
		c-0.185-0.1-0.302-0.285-0.302-0.486V3.433c0-0.202,0.117-0.382,0.302-0.476c1.067-0.555,2.736-0.555,3.803,0
		c0.186,0.094,0.301,0.274,0.301,0.476V5.099z"/>
	<path fill="#BA2B31" d="M48.086,1.496h-1.179c-0.046,0-0.081,0.036-0.081,0.082v3.798c0,0.145-0.074,0.267-0.209,0.33
		c-0.742,0.382-1.902,0.382-2.645,0c-0.127-0.063-0.202-0.185-0.202-0.33V1.578c0-0.046-0.041-0.082-0.087-0.082h-1.171
		c-0.046,0-0.081,0.036-0.081,0.082v3.798c0,0.145-0.082,0.267-0.209,0.33c-0.743,0.382-1.902,0.382-2.644,0
		c-0.127-0.063-0.208-0.185-0.208-0.33V0.088c0-0.023-0.012-0.041-0.024-0.065C39.324,0.012,39.307,0,39.285,0l-0.032,0.008
		l-1.125,0.556c-0.023,0.011-0.035,0.023-0.058,0.039c-0.023,0.023-0.046,0.07-0.046,0.116l0.007,4.657
		c0,0.145-0.077,0.267-0.204,0.33c-0.742,0.382-1.906,0.382-2.645,0c-0.131-0.063-0.208-0.185-0.208-0.33V1.578
		c0-0.046-0.039-0.082-0.081-0.082h-1.172c-0.045,0-0.081,0.036-0.081,0.082v3.798c0,0.145-0.08,0.267-0.22,0.33
		c-0.742,0.382-1.891,0.382-2.633,0c-0.115-0.058-0.19-0.155-0.208-0.278v-3.85c0-0.046-0.046-0.082-0.086-0.082h-1.178
		c-0.039,0-0.074,0.036-0.074,0.082v3.798c0,0.145-0.076,0.267-0.215,0.33c-0.743,0.382-1.903,0.382-2.638,0
		c-0.134-0.063-0.203-0.185-0.203-0.33V1.578c0-0.046-0.047-0.082-0.093-0.082h-1.172c-0.046,0-0.081,0.036-0.081,0.082v3.798
		c0,0.145-0.074,0.267-0.208,0.33c-0.736,0.382-1.903,0.382-2.645,0c-0.127-0.063-0.208-0.185-0.208-0.33V1.578
		c0-0.046-0.035-0.082-0.085-0.082h-1.179c-0.046,0-0.08,0.036-0.08,0.082l0.006,6.006c0,0.208-0.111,0.383-0.297,0.483
		c-1.067,0.549-2.737,0.549-3.804,0h-1.57c0.133,0.503,0.469,0.926,0.957,1.175c1.461,0.754,3.571,0.754,5.039,0
		c0.632-0.325,1.014-0.964,1.014-1.659V7.081c1.136,0.382,2.558,0.307,3.579-0.215c0.051-0.034,0.104-0.058,0.155-0.092
		c0.046,0.034,0.101,0.058,0.151,0.092c1.183,0.61,2.911,0.61,4.089,0c0.058-0.034,0.105-0.058,0.155-0.092
		c0.047,0.034,0.1,0.058,0.151,0.092c1.183,0.61,2.906,0.61,4.093,0c0.053-0.034,0.104-0.058,0.151-0.092
		c0.054,0.034,0.104,0.058,0.163,0.092c1.182,0.61,2.899,0.61,4.081,0c0.058-0.034,0.106-0.058,0.15-0.092
		c0.059,0.034,0.105,0.058,0.164,0.092c1.183,0.61,2.898,0.61,4.081,0c0.058-0.034,0.104-0.058,0.158-0.092
		c0.051,0.034,0.097,0.058,0.155,0.092c1.182,0.61,2.906,0.61,4.089,0c0.504-0.266,0.829-0.777,0.829-1.344V1.578
		C48.172,1.532,48.131,1.496,48.086,1.496"/>
</g>
</svg>
