<?xml version="1.0" encoding="utf-8"?>
<!-- Generator: Adobe Illustrator 16.0.0, SVG Export Plug-In . SVG Version: 6.00 Build 0)  -->
<!DOCTYPE svg PUBLIC "-//W3C//DTD SVG 1.1//EN" "http://www.w3.org/Graphics/SVG/1.1/DTD/svg11.dtd">
<svg version="1.1"
	 id="Calque_1" sodipodi:docname="LogoNAFTAL.svg" inkscape:version="0.48.4 r9939" xmlns:dc="http://purl.org/dc/elements/1.1/" xmlns:cc="http://creativecommons.org/ns#" xmlns:rdf="http://www.w3.org/1999/02/22-rdf-syntax-ns#" xmlns:inkscape="http://www.inkscape.org/namespaces/inkscape" xmlns:svg="http://www.w3.org/2000/svg" xmlns:sodipodi="http://sodipodi.sourceforge.net/DTD/sodipodi-0.dtd"
	 xmlns="http://www.w3.org/2000/svg" xmlns:xlink="http://www.w3.org/1999/xlink" x="0px" y="0px" width="979.853px"
	 height="436.295px" viewBox="6.187 0 979.853 436.295" enable-background="new 6.187 0 979.853 436.295" xml:space="preserve">
<title  id="title3014">Logo de NAFTAL</title>
<sodipodi:namedview  id="namedview33" inkscape:window-height="480" inkscape:pageshadow="2" inkscape:window-width="640" inkscape:window-x="0" inkscape:pageopacity="0" inkscape:window-y="0" inkscape:window-maximized="0" inkscape:current-layer="Calque_1" inkscape:cy="21.9795" guidetolerance="10" gridtolerance="10" inkscape:cx="49.301998" objecttolerance="10" pagecolor="#ffffff" inkscape:zoom="3.5596935" borderopacity="1" showgrid="false" bordercolor="#666666">
	</sodipodi:namedview>
<g id="g3">
	<path id="path5" fill="#002866" d="M748.36,146.24c0,109.6-78.399,133.99-131.8,133.99h-260.7l31.101-99.391H600.86
		c4.24,0,15.18-6.88,14.24-25.31c-0.63-12.49-8.44-22.5-14.24-22.99h-198.8l37.7-120.4h176.8
		C696.67,12.13,748.36,51.64,748.36,146.24z"/>
	<polygon id="polygon7" fill="#F0B41E" points="197.67,179.54 165.46,279.141 57.07,279.141 87.87,179.54 	"/>
	<path id="path9" fill="#002866" d="M416.26,12.13l-95.2,296.2l-11.1,34.5l-12.4,38.6c-13.399,30.291-20.3,39.391-39.7,40.69h-245
		L52.16,295.02h136L277.86,12.12h138.4V12.13z"/>
</g>
<g id="g11">
	<path id="path13" fill="#F0B41E" d="M972.289,12.13c7.25,2.76,7.311,10.72,7.25,14.66c-0.1,5.05-2.25,16.23-8.71,18.24H737.25
		c-13.2-16.45-22.811-25.03-47.671-32.9H972.289z"/>
	<path id="path15" fill="#F0B41E" d="M953.329,70.83c6.46,2.19,7.801,10.29,7.73,14.37c-0.1,5.01-2.21,15.63-8.55,18.13H765.14
		c-2.4-12.1-5.97-22.9-10.59-32.5H953.329z"/>
	<path id="path17" fill="#F0B41E" d="M933.85,131.64c7.42,2.32,7.86,11.88,7.38,15.99c-0.61,5.06-2.07,15.4-9.16,18.21H768.32
		c0.48-6.3,0.67-12.8,0.67-19.6c0-5-0.1-9.9-0.479-14.6H933.85z"/>
	<path id="path19" fill="#F0B41E" d="M912.92,189.14c5,0,7.17,14.17,6.949,19.29c-0.18,3.88,0.011,10.84-6.54,14.11H757.61
		c3.68-9.8,6.61-21,8.68-33.4H912.92z"/>
	<path id="path21" fill="#F0B41E" d="M895.829,242.53c4.9,1.43,6.891,14.149,6.48,19.2c-0.43,5.209-1.58,15.039-9.8,18.5H692.72
		c21.05-1.601,40.51-14.101,54.47-37.7H895.829z"/>
</g>
<g id="g23">
	<polygon id="polygon25" fill="#002866" points="926.67,408.939 921.67,430.83 825.159,430.83 864.36,308.33 899.459,308.33 
		867.27,409.54 	"/>
	<path id="path27" fill="#002866" d="M807.47,308.33l-95.2,84.5l-6.81-0.7l18.699-57.1l20.4-0.5l9.2-26.2h-74.2l-8.6,26.2h17.6
		l-31.6,96.3h56.81l13.3-17.1l47.101,0.399l-5.4,16.7h36.3l39.71-122.5H807.47z M783.17,390.34l-24.9-0.109l29.6-31L783.17,390.34z"
		/>
	<polygon id="polygon29" fill="#002866" points="616.26,334.54 606.67,366.439 647.47,366.439 640.06,388.939 599.869,388.939 
		587.159,430.83 549.459,430.83 563.17,388.939 570.57,366.439 580.96,334.54 589.57,308.33 666.47,308.33 657.869,334.54 	"/>
	<path id="path31" fill="#002866" d="M536.06,308.33l-85.29,80l23.9-80h-35.9l-22.5,71.6l-32.1-71.6h-30.7l-39.2,122.5h37
		l20.7-64.391l30.7,64.391h40.6l23.8-20.801l39.2,0.801l-7.3,20h35.3l40.2-122.5H536.06z M513.56,388.939h-23.101l28.41-26.209
		L513.56,388.939z"/>
</g>
</svg>
