<?xml version="1.0" encoding="UTF-8" standalone="no"?>
<!-- Generator: Adobe Illustrator 16.0.0, SVG Export Plug-In . SVG Version: 6.00 Build 0)  -->

<svg
   xmlns:dc="http://purl.org/dc/elements/1.1/"
   xmlns:cc="http://creativecommons.org/ns#"
   xmlns:rdf="http://www.w3.org/1999/02/22-rdf-syntax-ns#"
   xmlns:svg="http://www.w3.org/2000/svg"
   xmlns="http://www.w3.org/2000/svg"
   xmlns:sodipodi="http://sodipodi.sourceforge.net/DTD/sodipodi-0.dtd"
   xmlns:inkscape="http://www.inkscape.org/namespaces/inkscape"
   version="1.1"
   id="Layer_1"
   x="0px"
   y="0px"
   width="1718.34px"
   height="2050px"
   viewBox="0 0 171.834 205"
   enable-background="new 0 0 171.834 205"
   xml:space="preserve"
   inkscape:version="0.48.4 r9939"
   sodipodi:docname="AlgeriePoste.svg"><title
   id="title3026">Algerie Poste</title><metadata
   id="metadata49"><rdf:RDF><cc:Work
       rdf:about=""><dc:format>image/svg+xml</dc:format><dc:type
         rdf:resource="http://purl.org/dc/dcmitype/StillImage" /><dc:title>Algerie Poste</dc:title></cc:Work></rdf:RDF></metadata><defs
   id="defs47" /><sodipodi:namedview
   pagecolor="#ffffff"
   bordercolor="#666666"
   borderopacity="1"
   objecttolerance="10"
   gridtolerance="10"
   guidetolerance="10"
   inkscape:pageopacity="0"
   inkscape:pageshadow="2"
   inkscape:window-width="640"
   inkscape:window-height="480"
   id="namedview45"
   showgrid="false"
   inkscape:zoom="0.11512195"
   inkscape:cx="859.16998"
   inkscape:cy="1025"
   inkscape:window-x="368"
   inkscape:window-y="134"
   inkscape:window-maximized="0"
   inkscape:current-layer="Layer_1" />
<path
   fill="#FECC0B"
   d="M130,113.25c-20.13,13.12-37.54,21.14-52.27,25.19l-0.04-11.16l-21.31,6.479l-0.04,7.98  C10.63,142.31,4.45,93.3,35.67,60.83c-20.91,48.41,50.35,40.5,80.99,45.01C124.74,107.03,130,109.08,130,113.25z"
   id="path3" />
<polygon
   fill="#22297C"
   points="150.25,144.6 150.25,150.5 136.979,154.538 136.988,148.635 "
   id="polygon5" />
<polygon
   fill="#22297C"
   points="80.75,163.689 80.75,170.15 77.69,171.08 67.19,174.279 67.19,167.82 77.69,164.62 "
   id="polygon7" />
<polygon
   fill="#22297C"
   points="65,169.126 65,175.586 56.38,178.216 51.44,179.716 51.44,173.256 56.38,171.756 "
   id="polygon9" />
<path
   fill="#22297C"
   d="M156.25,117.43v11.945c0,2.25-2,5.084-6.547,6.722l-13.453,4.093l-5,1.521v17.978  c-0.125,3.5-2.875,5.25-5.123,6.131l-15.316,4.662l-6.871,2.09c0,0-15.147,4.621-15.282,4.65c-3.095,0.676-4.303-0.846-4.467-2.282  v-12.298l19.75-6v7.214c0,2.167,6.811,1.646,6.871-1.354v-31.24l20.109-6.119v7.92c1.247,2.355,6.039,1.689,6.08-1.521v-8.25  l13.25-4.03L156.25,117.43z"
   id="path11" />
<path
   fill="#22297C"
   d="M131.5,111.33c30-23,49-66.67-128.67-83C158.17-41.67,212.17,55.33,131.5,111.33z"
   id="path13" />
<path
   fill="#22297C"
   d="M103.94,133.35v13.74c0,1.44-1.351,3.44-3.88,4.11l-15.87,4.83l-3.44,1.05l-3.06,0.93l-10.5,3.19L65,161.87  l-8.62,2.62L51.44,166l-0.69,0.21l-14.11,4.29c-3.23,0.53-6.39-0.59-6.89-3v-11.57l21-6.39v8.96c0.35,1.42,5.31,1.04,5.5-1.25  l0.09-15.51l0.04-7.98l21.31-6.479l0.04,11.16l0.05,11.25c0.1,1.869,5.28,0.72,5.26-1.53L83,139.72l1.19-0.359L103.94,133.35z"
   id="path15" />
<g
   id="g17">
	<path
   fill="#22297C"
   d="M21.932,199.434l3.315-9.701h1.611l3.315,9.701h-1.38l-0.892-2.711h-3.757l-0.892,2.711H21.932z    M27.539,195.622l-1.519-4.574l-1.512,4.574H27.539z"
   id="path19" />
	<path
   fill="#22297C"
   d="M39.917,199.434h-5.699v-9.701h1.308v8.555h4.392V199.434z"
   id="path21" />
	<path
   fill="#22297C"
   d="M47.175,199.623c-0.695,0-1.332-0.105-1.908-0.313c-0.577-0.208-1.072-0.525-1.486-0.951   c-0.414-0.43-0.731-0.962-0.951-1.597c-0.22-0.634-0.33-1.363-0.33-2.189c0-0.781,0.111-1.481,0.333-2.101   c0.222-0.619,0.54-1.147,0.954-1.587c0.4-0.426,0.894-0.754,1.479-0.983c0.585-0.23,1.226-0.346,1.921-0.346   c0.331,0,0.647,0.024,0.951,0.071c0.304,0.049,0.594,0.113,0.872,0.196c0.22,0.065,0.466,0.155,0.736,0.271   c0.271,0.115,0.49,0.214,0.657,0.296v1.558h-0.112c-0.163-0.144-0.331-0.279-0.505-0.407c-0.174-0.128-0.419-0.267-0.736-0.414   c-0.264-0.13-0.568-0.239-0.912-0.325c-0.343-0.088-0.713-0.131-1.109-0.131c-0.947,0-1.711,0.352-2.295,1.056   s-0.875,1.64-0.875,2.808c0,0.652,0.077,1.221,0.231,1.707c0.154,0.487,0.376,0.9,0.667,1.238c0.282,0.335,0.622,0.59,1.021,0.766   s0.846,0.264,1.344,0.264c0.37,0,0.737-0.025,1.103-0.078c0.365-0.052,0.673-0.13,0.924-0.234v-2.508h-2.271v-1.135h3.566v4.236   c-0.167,0.073-0.391,0.167-0.67,0.279c-0.28,0.113-0.541,0.202-0.783,0.268c-0.322,0.096-0.612,0.167-0.872,0.215   S47.545,199.623,47.175,199.623z"
   id="path23" />
	<path
   fill="#22297C"
   d="M55.503,199.434v-9.701h6.148v1.146h-4.841v2.658h4.511v1.146h-4.511v3.604h4.841v1.146H55.503z"
   id="path25" />
	<path
   fill="#22297C"
   d="M72.121,199.434h-1.697l-3.117-3.857h-1.493v3.857h-1.308v-9.701h2.536c0.563,0,1.036,0.029,1.417,0.091   c0.381,0.061,0.743,0.202,1.086,0.423c0.343,0.218,0.615,0.498,0.815,0.841s0.301,0.769,0.301,1.277   c0,0.712-0.183,1.308-0.548,1.785s-0.863,0.832-1.493,1.062L72.121,199.434z M69.294,192.462c0-0.282-0.051-0.533-0.152-0.753   c-0.102-0.219-0.258-0.398-0.469-0.537c-0.185-0.121-0.401-0.207-0.647-0.258c-0.247-0.049-0.553-0.074-0.918-0.074h-1.294v3.662   h1.149c0.374,0,0.711-0.033,1.01-0.099s0.555-0.2,0.766-0.403c0.189-0.184,0.329-0.4,0.419-0.652   C69.249,193.096,69.294,192.801,69.294,192.462z"
   id="path27" />
	<path
   fill="#22297C"
   d="M76.188,199.434h-1.302v-0.99l0,0v-7.721l0,0l0.005-0.99h1.313l-0.01,0.99l0,0v7.721l0,0L76.188,199.434z"
   id="path29" />
	<path
   fill="#22297C"
   d="M80.776,199.434v-9.701h6.148v1.146h-4.841v2.658h4.511v1.146h-4.511v3.604h4.841v1.146H80.776z"
   id="path31" />
</g>
<g
   id="g33">
	<path
   fill="#22297C"
   d="M104.664,192.121c0,0.484-0.093,0.945-0.279,1.383c-0.188,0.437-0.456,0.802-0.807,1.096   c-0.216,0.181-0.452,0.348-0.709,0.502c-0.258,0.153-0.543,0.283-0.854,0.391c-0.313,0.107-0.65,0.191-1.016,0.252   s-0.773,0.09-1.227,0.09h-1.665v3.399h-3.176v-10.393h4.909c0.729,0,1.359,0.055,1.889,0.164s1.01,0.282,1.439,0.521   c0.476,0.26,0.844,0.607,1.104,1.043C104.534,191.004,104.664,191.521,104.664,192.121z M101.404,192.184   c0-0.293-0.086-0.545-0.256-0.757s-0.373-0.356-0.611-0.437c-0.3-0.106-0.587-0.168-0.861-0.185   c-0.275-0.017-0.647-0.024-1.117-0.024h-0.45v3.113h0.221c0.3,0,0.583-0.003,0.849-0.008c0.266-0.004,0.498-0.021,0.696-0.049   c0.17-0.023,0.35-0.068,0.539-0.136s0.336-0.144,0.438-0.228c0.215-0.172,0.361-0.351,0.438-0.537   C101.365,192.752,101.404,192.5,101.404,192.184z"
   id="path35" />
	<path
   fill="#22297C"
   d="M118.879,194.041c0,1.68-0.547,3.001-1.64,3.964c-1.093,0.964-2.591,1.444-4.492,1.444   c-1.908,0-3.405-0.486-4.493-1.461c-1.086-0.976-1.63-2.291-1.63-3.947c0-1.671,0.544-2.991,1.63-3.961   c1.088-0.971,2.585-1.455,4.493-1.455c1.901,0,3.399,0.482,4.492,1.447C118.332,191.039,118.879,192.361,118.879,194.041z    M115.6,194.033c0-0.618-0.077-1.146-0.232-1.58c-0.156-0.436-0.364-0.793-0.625-1.072c-0.271-0.283-0.578-0.486-0.921-0.61   c-0.343-0.123-0.698-0.185-1.065-0.185c-0.391,0-0.745,0.057-1.063,0.171c-0.316,0.114-0.622,0.317-0.916,0.61   c-0.262,0.27-0.472,0.629-0.633,1.075c-0.162,0.446-0.242,0.979-0.242,1.599c0,0.637,0.076,1.166,0.229,1.588   c0.153,0.421,0.363,0.773,0.629,1.057c0.271,0.289,0.58,0.494,0.926,0.618c0.346,0.123,0.701,0.185,1.07,0.185   c0.373,0,0.735-0.066,1.086-0.199c0.352-0.132,0.654-0.338,0.909-0.617c0.272-0.303,0.481-0.654,0.628-1.057   C115.527,195.212,115.6,194.686,115.6,194.033z"
   id="path37" />
	<path
   fill="#22297C"
   d="M125.662,199.422c-0.969,0-1.819-0.076-2.553-0.23c-0.732-0.153-1.414-0.344-2.042-0.572v-2.471h0.288   c0.635,0.441,1.334,0.781,2.098,1.02c0.765,0.236,1.506,0.355,2.225,0.355c0.182,0,0.421-0.016,0.719-0.049   c0.297-0.033,0.535-0.084,0.717-0.154c0.221-0.078,0.408-0.189,0.561-0.331s0.229-0.329,0.229-0.562   c0-0.261-0.124-0.473-0.374-0.635c-0.249-0.163-0.546-0.281-0.891-0.356c-0.432-0.093-0.891-0.182-1.381-0.265   c-0.49-0.084-0.947-0.187-1.371-0.308c-0.979-0.284-1.682-0.665-2.105-1.145c-0.426-0.479-0.638-1.079-0.638-1.801   c0-0.973,0.501-1.76,1.503-2.362c1.002-0.604,2.254-0.904,3.754-0.904c0.753,0,1.502,0.063,2.246,0.188s1.41,0.296,2,0.51v2.373   h-0.28c-0.47-0.331-1.044-0.61-1.72-0.838c-0.677-0.228-1.371-0.342-2.085-0.342c-0.277,0-0.526,0.017-0.747,0.049   s-0.453,0.095-0.697,0.188c-0.197,0.074-0.369,0.186-0.514,0.332c-0.144,0.146-0.216,0.311-0.216,0.492   c0,0.265,0.114,0.475,0.344,0.631s0.673,0.297,1.329,0.422c0.425,0.08,0.834,0.156,1.227,0.23c0.395,0.074,0.814,0.178,1.262,0.308   c0.877,0.261,1.529,0.61,1.957,1.05s0.642,1.021,0.642,1.742c0,1.033-0.494,1.863-1.481,2.491   C128.678,199.107,127.343,199.422,125.662,199.422z"
   id="path39" />
	<path
   fill="#22297C"
   d="M136.197,199.233v-8.41h-3.736v-1.982h10.649v1.982h-3.736v8.41H136.197z"
   id="path41" />
	<path
   fill="#22297C"
   d="M145.418,199.233v-10.393h8.552v1.982h-5.393v1.821h4.968v1.982h-4.968v2.624h5.393v1.982H145.418z"
   id="path43" />
</g>
</svg>