<?xml version="1.0" encoding="utf-8"?>
<!-- Generator: Adobe Illustrator 19.2.1, SVG Export Plug-In . SVG Version: 6.00 Build 0)  -->
<svg version="1.1" id="layer" xmlns="http://www.w3.org/2000/svg" xmlns:xlink="http://www.w3.org/1999/xlink" x="0px" y="0px"
	 viewBox="0 0 652 652" style="enable-background:new 0 0 652 652;" xml:space="preserve">
<style type="text/css">
	.st0{fill:#F08100;}
</style>
<g>
	<path d="M170.4,547.1c-0.1-0.7-0.2-2.5-3.1-2.5c-2.1,0-2.8,1.3-2.8,2.2c0,1.8,2.4,2.8,5,3.5c5.6,1.5,11.5,3.2,11.5,10.3
		c0,6.9-6.1,11.2-13.4,11.2c-5,0-12.5-2.2-13.4-10.9h9.7c0.4,3,3.3,3,3.7,3c1.7,0,3.4-0.9,3.4-2.5c0-2.6-2.4-2.8-8.7-5.3
		c-4.3-1.4-7.8-4.1-7.8-8.6c0-6.5,5.9-10.8,12.7-10.8c4.3,0,11.8,1.7,12.6,10.4H170.4z"/>
	<path d="M205.8,536.8c11.9,0,17.7,9.4,17.7,17.5c0,8.1-5.7,17.4-17.7,17.4c-11.9,0-17.7-9.4-17.7-17.4
		C188.1,546.2,193.9,536.8,205.8,536.8 M205.8,562.5c4.3,0,7.9-3.5,7.9-8.3c0-4.8-3.6-8.3-7.9-8.3c-4.2,0-7.9,3.5-7.9,8.3
		C197.9,559.1,201.6,562.5,205.8,562.5"/>
	<path d="M232.8,537.9h9.1v3.5h0.1c1-1.6,3.1-4.6,8.9-4.6c3.1,0,6.6,1.3,8.4,2.8c1.8,1.5,3.8,4.1,3.8,10.6v20.5h-9.8v-17.9
		c0-2.3,0-6.8-5.1-6.8c-5.6,0-5.6,4.9-5.6,6.9v17.9h-9.8V537.9z"/>
	<path d="M308.4,570.7h-9.8v-3.6h-0.1c-1.6,3.2-5.7,4.7-9.6,4.7c-10.4,0-16.5-8.2-16.5-17.6c0-10.8,7.7-17.5,16.5-17.5
		c5.4,0,8.4,2.6,9.6,4.6h0.1v-3.5h9.8V570.7z M290.4,562.7c6.1,0,8.2-5.2,8.2-8.4c0-4-2.7-8.3-8.3-8.3c-5.6,0-8.1,4.7-8.1,8.5
		C282.2,557.5,284.5,562.7,290.4,562.7"/>
	<polygon points="331.4,537.9 336.1,537.9 336.1,545.3 331.4,545.3 331.4,570.7 321.6,570.7 321.6,545.3 316.7,545.3 316.7,537.9 
		321.6,537.9 321.6,526.9 331.4,526.9 	"/>
	<path d="M344.1,537.9h9.2v3.5h0.1c0.8-1.6,2.5-4.6,8.2-4.6v9.9c-4.6,0.1-7.8,1.1-7.8,6v18.1h-9.8V537.9z"/>
	<path d="M403.8,570.7H394v-3.6h-0.1c-1.7,3.2-5.7,4.7-9.6,4.7c-10.4,0-16.5-8.2-16.5-17.6c0-10.8,7.7-17.5,16.5-17.5
		c5.4,0,8.4,2.6,9.6,4.6h0.1v-3.5h9.8V570.7z M385.8,562.7c6.1,0,8.2-5.2,8.2-8.4c0-4-2.7-8.3-8.3-8.3c-5.6,0-8.1,4.7-8.1,8.5
		C377.6,557.5,379.9,562.7,385.8,562.7"/>
	<path d="M447.9,558.2c-1.8,7.5-8.3,13.6-17.2,13.6c-9.9,0-17.6-7.8-17.6-17.6c0-9.6,7.5-17.5,17.3-17.5c8.7,0,15.7,5.7,17.4,13.8
		h-9.9c-1.1-2.2-3-4.6-7.1-4.6c-4.7-0.2-7.8,3.6-7.8,8.3c0,4.8,3.1,8.3,7.8,8.3c4.1,0,6-2.4,7.1-4.4H447.9z"/>
	<path d="M457,526.9h9.8v14h0.1c1.6-3,5-4.1,8.4-4.1c3.1,0,6.9,1.1,8.9,3.6c2.8,3.3,3.1,6.1,3.1,12v18.4h-9.8v-17.9
		c0-1.6,0-6.9-5.3-6.9c-5.5,0-5.5,4.9-5.5,6.5v18.2H457V526.9z"/>
	<path class="st0" d="M231.8,246.5L231.8,246.5c0-3.1,2.5-5.6,5.6-5.6H488v-75.8H169.4c-8.7,0-15.8,7.1-15.8,15.8v129.6
		c0,8.7,7.1,15.8,15.8,15.8h236.2c3.1,0,5.6,2.5,5.6,5.6s-2.5,5.6-5.6,5.6h-252v75.3h133.2v10.9H153.7v75.8H488v-75.8H354.8v-10.9
		h117.4c8.7,0,15.8-7.1,15.8-15.8V267.9c0-8.7-7.1-15.8-15.8-15.8H237.3C234.3,252.1,231.8,249.6,231.8,246.5"/>
	<path d="M193.6,88.1c4.7-3.3,13.9-4.8,20.3-4.8c2.8,0,5.1-2.3,5.1-5.1c0-2.8-2.3-5.1-5.1-5.1c-7.7,0-19.2,1.7-26.2,6.7
		c-10.9,7.6-12.7,15.1-12.9,15.9c-0.6,2.7,1.1,5.3,3.8,6c7.1,1.8,17.2,5.2,23,8.6c2.2,1.5,5.3,4.1,5.9,7.3c0,0.1,0,0.2,0,0.2
		c0,0.2,0,0.5,0.1,0.7c0,0.5-0.1,0.8-0.3,0.9c-0.1,0.1-0.4,0.2-0.6,0.2c-4.3,0.1-20.5,0-29.2,0l-5.4,0c-4.2,0-6.4-2-6.4-5.8v-1.8
		c0-2.8-2.3-5.1-5.1-5.1c-2.8,0-5.1,2.3-5.1,5.1v1.8c0,11.1,8.3,16.1,16.6,16.1l5.4,0c5,0,12.4,0,18.6,0c4.8,0,8.9,0,10.7,0
		c3.1,0,5.9-1.3,7.9-3.4c2.1-2.3,3.2-5.3,3-8.7c-0.2-3.6-1.7-7.5-4.2-10.7c-4.8-6.2-17.8-11-26.1-13.5
		C188.8,91.9,190.8,90,193.6,88.1"/>
	<path d="M373.1,88c-2.8,0-5.1,2.3-5.1,5.1v19.6c0,0.1,0,0.2,0,0.3c0.1,1.8-0.5,3.4-1.5,4.5c-1.7,1.8-5,2.2-7.5,2.2
		c-9,0-10.1-5.4-10.3-7.2V77.4c0-2.8-2.3-5.1-5.1-5.1c-2.8,0-5.1,2.3-5.1,5.1l0,35.3c0,0.5,0.2,4.6,2.9,8.7
		c2.5,3.9,7.6,8.4,17.7,8.4c6.5,0,11.5-1.8,14.9-5.3c3-3.1,4.5-7.3,4.3-11.9V93.1C378.2,90.3,375.9,88,373.1,88"/>
	<path d="M316.4,90.3c-6.1,0-13.9,3.1-23.1,9.3c-3.9,2.6-7.7,5.2-11.3,7.7V77.4c0-2.8-2.3-5.1-5.1-5.1s-5.1,2.3-5.1,5.1v37
		c-3.3,2.4-7,5.1-7,5.1h-8.4V95.8c0-2.8-2.3-5.1-5.1-5.1c-2.8,0-5.1,2.3-5.1,5.1V123c0,0.1-1.1,9.2-12.6,12.1
		c-2.7,0.7-4.4,3.5-3.7,6.2c0.6,2.3,2.7,3.9,5,3.9c0.4,0,0.8,0,1.3-0.2c10.6-2.7,16.3-9.5,18.8-15.3h55.4c13.1,0,20-11.3,20-22.5
		C330.1,91.9,320.5,90.3,316.4,90.3 M310.1,119.5h-27.7c4.8-3.4,10.7-7.4,16.6-11.4c9.8-6.6,15.1-7.5,17.4-7.5c1.4,0,3.5,0,3.5,6.7
		C319.9,107.7,319.7,119.5,310.1,119.5"/>
	<path d="M233.6,124.7V77.4c0-2.8-2.3-5.1-5.1-5.1c-2.8,0-5.1,2.3-5.1,5.1v47.2c0,2.8,2.3,5.1,5.1,5.1
		C231.3,129.8,233.6,127.5,233.6,124.7"/>
	<path d="M481,88c-2.8,0-5.1,2.3-5.1,5.1v23c0,2.5,0,3.4-5.5,3.4s-5.5-0.9-5.5-3.4v-23c0-2.8-2.3-5.1-5.1-5.1
		c-2.8,0-5.1,2.3-5.1,5.1v23c0,2.5,0,3.4-5.5,3.4c-5.5,0-5.5-0.9-5.5-3.4v-23c0-2.8-2.3-5.1-5.1-5.1s-5.1,2.3-5.1,5.1v23
		c0,2.5,0,3.4-5.5,3.4c-5.5,0-5.5-0.9-5.5-3.4v-5.6c0-0.2,0-2.9,0-2.9c0-10.1-8.2-18.3-18.3-18.3s-18.3,8.2-18.3,18.3
		c0,10.1,8.2,18.3,18.3,18.3c2.8,0,5.4-0.6,7.8-1.8c-0.7,2.6-3.1,8-12.6,10.7c-2.7,0.8-4.3,3.6-3.5,6.3c0.6,2.3,2.7,3.7,4.9,3.7
		c0.5,0,0.9-0.1,1.4-0.2c11.4-3.3,16.9-10,19-15.8c2,0.6,4.2,0.8,6.8,0.8c4.5,0,8.1-0.9,10.7-2.6c2.6,1.7,6.1,2.6,10.7,2.6
		s8.1-0.9,10.7-2.6c2.6,1.7,6.1,2.6,10.7,2.6c10.5,0,15.8-4.6,15.8-13.6v-23C486.2,90.3,483.9,88,481,88 M403.9,115.7
		c-4.4,0-8-3.6-8-8c0-4.4,3.6-8,8-8c4.4,0,8,3.6,8,8C411.9,112.1,408.3,115.7,403.9,115.7"/>
	<path d="M373.1,71.8c-3.1,0-5.5,2.5-5.5,5.5c0,3.1,2.5,5.5,5.5,5.5c3.1,0,5.5-2.5,5.5-5.5C378.6,74.3,376.1,71.8,373.1,71.8"/>
</g>
</svg>
