<?xml version="1.0" encoding="UTF-8" standalone="no"?>
<!DOCTYPE svg PUBLIC "-//W3C//DTD SVG 1.1//EN" "http://www.w3.org/Graphics/SVG/1.1/DTD/svg11.dtd">
<svg xmlns="http://www.w3.org/2000/svg" version="1.1" viewBox="0.00 0.00 481.00 518.00">
<g stroke-width="2.00" fill="none" stroke-linecap="butt">
<path stroke="#81a18e" vector-effect="non-scaling-stroke" d="
  M 241.97 103.02
  Q 240.03 103.24 239.66 104.02"
/>
<path stroke="#467a5b" vector-effect="non-scaling-stroke" d="
  M 239.66 104.02
  Q 235.33 104.34 231.22 105.93
  C 222.56 109.26 216.65 119.74 222.94 128.02
  Q 224.53 130.11 227.12 132.30"
/>
<path stroke="#7f210f" vector-effect="non-scaling-stroke" d="
  M 227.12 132.30
  Q 229.90 143.02 240.34 144.58"
/>
<path stroke="#81a18e" vector-effect="non-scaling-stroke" d="
  M 243.89 157.41
  Q 247.06 157.82 249.90 155.63
  Q 250.36 155.27 250.85 155.60
  L 252.20 156.52"
/>
<path stroke="#c3594d" vector-effect="non-scaling-stroke" d="
  M 240.02 115.66
  C 231.86 117.10 225.79 123.64 227.12 132.30"
/>
<path stroke="#fe8080" vector-effect="non-scaling-stroke" d="
  M 244.39 144.19
  Q 243.88 144.01 244.05 143.55
  A 0.51 0.50 87.2 0 1 244.31 143.26
  Q 247.76 141.76 250.10 138.85
  A 0.26 0.26 0.0 0 0 249.77 138.45
  C 247.87 139.50 246.33 140.40 244.25 140.53
  Q 241.62 140.69 239.70 139.48"
/>
<path stroke="#81a18e" vector-effect="non-scaling-stroke" d="
  M 239.70 139.48
  L 239.49 120.04"
/>
<path stroke="#fe8080" vector-effect="non-scaling-stroke" d="
  M 239.49 120.04
  Q 245.40 117.61 249.51 121.50
  Q 249.58 121.56 249.64 121.49
  Q 249.72 121.40 249.82 121.31
  Q 250.06 121.11 249.86 120.86
  Q 246.06 116.18 240.02 115.66"
/>
<path stroke="#c4d8cc" vector-effect="non-scaling-stroke" d="
  M 240.02 115.66
  L 239.66 104.02"
/>
<path stroke="#7f210f" vector-effect="non-scaling-stroke" d="
  M 239.49 120.04
  Q 237.43 121.87 235.75 124.42
  Q 234.06 127.01 234.01 129.75
  Q 233.92 136.32 239.70 139.48"
/>
<path stroke="#fe8080" vector-effect="non-scaling-stroke" d="
  M 242.46 129.46
  A 0.46 0.46 0.0 0 1 242.48 129.95
  L 240.57 133.11
  A 0.46 0.46 0.0 0 0 241.13 133.78
  L 244.11 132.62
  A 0.46 0.46 0.0 0 1 244.66 132.80
  L 246.65 135.97
  A 0.46 0.46 0.0 0 0 247.50 135.72
  L 247.50 131.49
  A 0.46 0.46 0.0 0 1 247.85 131.05
  L 250.86 130.32
  A 0.46 0.46 0.0 0 0 250.87 129.43
  L 247.88 128.63
  A 0.46 0.46 0.0 0 1 247.54 128.20
  L 247.45 123.99
  A 0.46 0.46 0.0 0 0 246.59 123.78
  L 244.86 126.93
  A 0.46 0.46 0.0 0 1 244.33 127.15
  L 241.24 126.24
  A 0.46 0.46 0.0 0 0 240.73 126.94
  L 242.46 129.46"
/>
</g>
<path fill="#000000" d="
  M 481.00 260.57
  L 481.00 282.55
  Q 477.25 356.94 433.88 415.87
  C 368.02 505.39 246.50 538.58 143.96 493.27
  C 59.10 455.78 3.82 374.35 0.00 281.43
  L 0.00 264.69
  C 2.54 195.50 34.72 130.49 88.37 87.05
  C 175.50 16.50 298.74 14.75 387.77 83.22
  C 436.90 121.00 469.27 176.85 478.50 238.25
  Q 479.40 244.19 481.00 260.57
  Z
  M 479.85 273.14
  A 239.38 239.38 0.0 0 0 240.47 33.76
  A 239.38 239.38 0.0 0 0 1.09 273.14
  A 239.38 239.38 0.0 0 0 240.47 512.52
  A 239.38 239.38 0.0 0 0 479.85 273.14
  Z"
/>
<path fill="#000000" d="
  M 257.29 69.06
  C 257.46 61.72 257.97 54.68 257.40 46.13
  Q 257.37 45.56 257.66 45.08
  L 259.52 42.00
  A 0.34 0.34 0.0 0 1 260.15 42.15
  C 260.60 48.73 262.12 64.07 257.83 69.26
  Q 257.27 69.94 257.29 69.06
  Z"
/>
<path fill="#000000" d="
  M 191.05 47.69
  L 190.58 50.25
  A 0.72 0.72 0.0 0 1 189.66 50.81
  L 186.73 49.89
  A 0.72 0.72 0.0 0 1 186.27 48.94
  L 187.18 46.70
  A 0.72 0.72 0.0 0 1 188.01 46.27
  L 190.18 46.76
  A 0.72 0.72 0.0 0 0 191.04 46.24
  L 191.69 43.70
  A 0.72 0.72 0.0 0 1 192.60 43.20
  L 195.32 44.05
  A 0.72 0.72 0.0 0 1 195.80 44.90
  L 195.25 47.29
  A 0.72 0.72 0.0 0 1 194.35 47.82
  L 191.96 47.12
  A 0.72 0.72 0.0 0 0 191.05 47.69
  Z"
/>
<path fill="#000000" d="
  M 246.67 46.94
  Q 247.95 48.12 249.69 48.01
  A 0.43 0.43 0.0 0 1 249.84 48.86
  L 245.20 50.23
  A 0.42 0.42 0.0 0 1 244.83 49.48
  L 245.21 49.19
  Q 245.70 48.84 245.41 48.31
  L 245.01 47.55
  Q 244.81 47.17 244.97 46.77
  Q 245.98 44.20 248.86 43.96
  A 0.59 0.58 -2.7 0 1 249.50 44.54
  L 249.50 45.52
  A 0.69 0.69 0.0 0 1 248.71 46.20
  L 247.14 45.96
  A 0.57 0.57 0.0 0 0 246.67 46.94
  Z"
/>
<rect fill="#000000" x="-2.17" y="-1.88" transform="translate(281.78,52.16) rotate(41.0)" width="4.34" height="3.76" rx="0.56"/>
<path fill="#000000" d="
  M 128.67 98.56
  A 0.72 0.72 0.0 0 0 129.47 99.74
  L 134.71 97.05
  A 0.81 0.80 -33.6 0 1 135.69 97.24
  C 142.76 105.24 128.86 113.42 122.74 114.51
  C 116.02 115.69 114.30 105.77 115.38 101.28
  A 0.41 0.41 0.0 0 1 116.19 101.37
  C 116.29 105.78 116.85 112.21 123.28 110.22
  Q 130.01 108.12 135.58 102.28
  A 0.94 0.94 0.0 0 0 134.45 100.80
  L 129.82 103.32
  A 1.80 1.79 -27.6 0 1 127.37 102.56
  C 122.34 92.71 143.09 85.88 149.23 82.97
  A 0.37 0.36 41.2 0 0 149.18 82.29
  Q 142.68 80.16 136.63 83.05
  A 0.56 0.55 -8.7 0 1 135.84 82.47
  C 137.35 71.83 150.52 79.99 156.42 79.48
  Q 160.44 79.13 163.88 77.14
  A 0.78 0.77 -29.2 0 0 164.18 76.09
  L 155.94 61.03
  Q 155.65 60.52 155.17 60.18
  Q 152.65 58.45 153.16 54.97
  Q 153.27 54.19 153.88 54.69
  Q 155.31 55.86 157.24 55.46
  A 0.92 0.92 0.0 0 1 158.26 55.95
  Q 159.35 58.09 158.61 60.21
  Q 158.42 60.76 158.70 61.26
  L 166.63 75.43
  Q 166.94 75.98 167.54 75.79
  L 173.19 73.93
  Q 173.69 73.77 173.46 73.30
  L 165.85 57.56
  Q 165.59 57.03 165.13 56.68
  Q 162.43 54.64 163.22 50.99
  Q 163.37 50.27 163.90 50.80
  Q 165.33 52.25 167.43 51.99
  A 0.75 0.74 72.6 0 1 168.19 52.39
  Q 169.25 54.54 168.41 56.74
  A 1.15 1.12 43.0 0 0 168.45 57.63
  L 176.75 74.49
  Q 177.83 76.68 175.51 77.45
  Q 168.41 79.82 160.09 83.11
  C 158.65 83.68 157.09 83.65 155.78 84.25
  C 147.28 88.17 135.71 92.50 128.67 98.56
  Z"
/>
<path fill="#000000" d="
  M 194.52 57.29
  A 0.93 0.93 0.0 0 0 194.88 56.18
  Q 194.03 53.91 195.23 51.88
  Q 195.67 51.13 195.99 51.95
  L 200.98 64.88
  Q 201.70 66.73 203.67 66.52
  L 215.26 65.27
  A 0.74 0.74 0.0 0 0 215.93 64.49
  Q 215.73 61.11 213.03 59.16
  A 0.95 0.93 26.8 0 1 212.68 58.12
  L 213.46 55.51
  A 0.55 0.55 0.0 0 1 214.34 55.24
  C 217.83 58.10 217.64 63.76 218.25 67.80
  A 1.13 1.12 -7.7 0 1 217.27 69.08
  L 203.27 70.73
  A 2.52 2.52 0.0 0 1 200.77 69.45
  L 197.95 64.43
  A 0.36 0.36 0.0 0 0 197.33 64.41
  L 196.63 65.52
  Q 196.30 66.05 195.72 66.28
  Q 192.50 67.56 189.02 67.22
  A 1.27 1.26 13.0 0 1 187.95 65.52
  Q 189.87 60.34 194.52 57.29
  Z
  M 195.73 59.40
  L 192.13 62.51
  A 0.18 0.18 0.0 0 0 192.11 62.76
  L 192.16 62.82
  A 2.40 2.35 -40.8 0 0 195.51 63.03
  L 195.75 62.82
  A 2.40 2.35 -40.8 0 0 196.03 59.47
  L 195.99 59.42
  A 0.18 0.18 0.0 0 0 195.73 59.40
  Z"
/>
<path fill="#000000" d="
  M 240.99 68.68
  Q 235.47 83.38 220.65 76.84
  Q 220.20 76.64 220.20 76.33
  Q 220.20 76.16 220.29 75.96
  A 0.51 0.50 18.8 0 1 220.87 75.68
  Q 230.57 78.10 236.67 70.37
  Q 241.57 64.15 235.77 58.83
  Q 235.25 58.35 235.48 57.68
  L 236.28 55.33
  Q 236.54 54.58 237.16 55.08
  Q 240.88 58.09 240.75 62.95
  A 1.21 1.20 1.7 0 0 241.92 64.18
  L 249.62 64.43
  A 0.69 0.67 8.2 0 0 250.29 63.94
  C 251.43 59.93 245.94 58.02 249.74 54.48
  Q 250.13 54.11 250.45 54.54
  C 253.36 58.42 252.50 63.79 251.93 68.26
  A 0.48 0.48 0.0 0 1 251.43 68.67
  L 241.71 68.21
  Q 241.18 68.18 240.99 68.68
  Z"
/>
<path fill="#000000" d="
  M 285.68 69.34
  L 300.26 73.67
  Q 301.06 73.91 300.64 73.18
  Q 297.17 67.24 290.63 65.36
  A 0.62 0.62 0.0 0 1 290.46 64.26
  C 299.70 58.02 302.49 71.29 307.31 75.23
  Q 310.34 77.70 314.85 78.82
  A 0.99 0.99 0.0 0 0 316.05 78.07
  C 317.27 72.49 319.80 65.47 319.70 59.70
  Q 319.65 56.91 322.12 55.00
  A 0.30 0.30 0.0 0 1 322.60 55.19
  Q 322.87 57.39 324.82 58.57
  A 0.62 0.61 -61.4 0 1 325.05 59.37
  L 323.81 61.87
  Q 323.55 62.38 323.01 62.55
  Q 321.82 62.94 321.48 64.75
  Q 319.71 74.21 317.05 83.04
  A 1.08 1.08 0.0 0 1 315.59 83.72
  Q 300.76 77.38 285.09 73.52
  Q 284.61 73.40 284.40 73.84
  Q 281.14 80.39 273.99 81.99
  C 269.83 82.93 265.77 80.34 262.47 78.13
  A 0.47 0.47 0.0 0 1 262.61 77.29
  Q 263.11 77.16 263.69 77.44
  Q 270.92 80.96 278.30 76.04
  C 288.20 69.45 278.43 63.99 282.55 60.18
  Q 283.00 59.76 283.36 60.25
  Q 286.14 64.02 285.24 68.62
  Q 285.13 69.18 285.68 69.34
  Z"
/>
<path fill="#000000" d="
  M 321.68 85.77
  A 0.14 0.14 0.0 0 1 321.60 85.59
  L 327.77 68.54
  A 8.49 1.23 -70.1 0 1 331.82 60.97
  L 332.23 61.12
  A 8.49 1.23 -70.1 0 1 330.50 69.53
  L 324.33 86.57
  A 0.14 0.14 0.0 0 1 324.15 86.66
  L 321.68 85.77
  Z"
/>
<path fill="#000000" d="
  M 213.52 75.21
  L 214.25 72.78
  A 0.58 0.58 0.0 0 1 214.69 72.38
  Q 216.66 72.02 218.31 73.47
  Q 218.64 73.77 218.48 74.19
  L 217.64 76.35
  A 0.78 0.77 23.2 0 1 216.59 76.77
  L 214.82 75.92
  A 0.82 0.82 0.0 0 0 213.69 76.40
  L 212.80 79.05
  Q 212.60 79.67 211.98 79.45
  L 208.90 78.34
  A 0.56 0.56 0.0 0 1 208.56 77.61
  L 209.53 75.15
  A 0.68 0.68 0.0 0 1 210.40 74.76
  L 212.68 75.62
  Q 213.32 75.86 213.52 75.21
  Z"
/>
<rect fill="#000000" x="-1.86" y="-2.04" transform="translate(352.76,74.58) rotate(-31.5)" width="3.72" height="4.08" rx="0.79"/>
<rect fill="#000000" x="-1.87" y="-2.08" transform="translate(358.33,75.50) rotate(-30.8)" width="3.74" height="4.16" rx="0.76"/>
<rect fill="#000000" x="-1.95" y="-2.12" transform="translate(292.50,81.37) rotate(-44.1)" width="3.90" height="4.24" rx="0.88"/>
<path fill="#000000" d="
  M 362.23 104.38
  Q 364.29 101.80 363.66 98.48
  Q 363.54 97.85 364.11 97.54
  L 366.42 96.26
  Q 367.11 95.88 367.16 96.66
  C 367.45 101.09 363.89 105.04 361.62 108.34
  A 1.10 1.09 35.0 0 1 360.08 108.61
  Q 354.68 104.80 349.06 100.93
  C 346.97 99.50 348.34 94.94 349.16 92.99
  Q 349.44 92.32 348.72 92.37
  Q 343.59 92.68 340.46 88.38
  Q 340.19 88.01 340.40 87.60
  C 341.93 84.66 349.06 84.90 351.85 84.99
  Q 352.38 85.01 352.52 84.49
  Q 353.08 82.32 355.25 81.48
  A 0.40 0.40 0.0 0 1 355.77 82.00
  L 350.89 94.95
  A 2.58 2.57 -61.8 0 0 351.79 97.94
  L 360.97 104.55
  A 0.92 0.92 0.0 0 0 362.23 104.38
  Z
  M 350.69 89.28
  A 1.24 1.23 24.8 0 0 349.87 87.06
  L 346.58 87.25
  Q 344.85 87.35 346.01 88.63
  Q 348.25 91.11 350.69 89.28
  Z"
/>
<rect fill="#000000" x="-2.12" y="-1.87" transform="translate(148.63,93.87) rotate(2.0)" width="4.24" height="3.74" rx="0.75"/>
<path fill="#000000" d="
  M 377.42 102.53
  L 379.25 100.59
  Q 379.76 100.05 380.00 100.75
  C 382.37 107.64 377.91 113.84 373.56 118.53
  A 0.93 0.92 -48.0 0 1 372.28 118.60
  C 369.81 116.42 359.61 110.59 365.92 106.94
  Q 366.46 106.63 366.49 107.24
  L 366.54 108.32
  A 1.12 1.12 0.0 0 0 366.96 109.13
  L 373.92 114.77
  Q 374.40 115.17 374.84 114.71
  Q 379.44 109.87 377.21 103.53
  Q 377.01 102.97 377.42 102.53
  Z"
/>
<path fill="#000000" d="
  M 394.82 134.73
  A 0.56 0.55 19.7 0 0 395.78 134.28
  C 395.12 129.86 394.75 126.37 390.95 122.85
  Q 390.43 122.36 391.12 122.15
  C 402.29 118.73 397.96 136.77 400.91 141.31
  Q 403.45 145.24 406.53 148.81
  A 0.72 0.72 0.0 0 0 407.45 148.95
  Q 410.34 147.12 410.59 143.58
  A 0.70 0.70 0.0 0 1 411.16 142.94
  L 414.13 142.41
  Q 414.86 142.28 414.67 143.00
  C 413.51 147.34 408.99 150.24 405.60 152.63
  A 0.98 0.98 0.0 0 1 404.26 152.42
  Q 394.64 139.70 383.56 128.39
  C 381.15 125.93 376.65 124.95 377.93 120.51
  C 379.77 114.10 388.71 109.48 389.25 102.75
  A 0.75 0.74 -4.5 0 1 389.81 102.10
  L 393.05 101.30
  A 0.66 0.66 0.0 0 1 393.75 102.32
  Q 388.48 109.84 382.53 116.28
  Q 381.83 117.04 380.91 119.59
  Q 380.74 120.08 380.90 120.59
  Q 381.45 122.24 383.11 122.48
  Q 383.68 122.56 384.06 122.99
  L 394.82 134.73
  Z"
/>
<path fill="#02421d" d="
  M 241.97 103.02
  Q 240.03 103.24 239.66 104.02
  Q 235.33 104.34 231.22 105.93
  C 222.56 109.26 216.65 119.74 222.94 128.02
  Q 224.53 130.11 227.12 132.30
  Q 229.90 143.02 240.34 144.58
  C 240.11 146.27 239.04 155.99 241.22 158.12
  A 0.83 0.83 0.0 0 0 242.19 158.27
  L 243.89 157.41
  Q 247.06 157.82 249.90 155.63
  Q 250.36 155.27 250.85 155.60
  L 252.20 156.52
  Q 247.49 162.13 239.00 159.98
  C 220.30 155.26 206.49 138.50 214.96 119.07
  C 219.32 109.09 230.58 101.46 241.97 103.02
  Z"
/>
<path fill="#ffffff" d="
  M 241.97 103.02
  C 263.71 106.20 276.05 129.53 261.64 147.50
  C 259.27 150.45 255.15 153.14 252.20 156.52
  L 250.85 155.60
  Q 250.36 155.27 249.90 155.63
  Q 247.06 157.82 243.89 157.41
  C 245.73 155.95 247.26 154.94 247.68 152.51
  Q 248.59 147.23 244.39 144.19
  Q 243.88 144.01 244.05 143.55
  A 0.51 0.50 87.2 0 1 244.31 143.26
  Q 247.76 141.76 250.10 138.85
  A 0.26 0.26 0.0 0 0 249.77 138.45
  C 247.87 139.50 246.33 140.40 244.25 140.53
  Q 241.62 140.69 239.70 139.48
  L 239.49 120.04
  Q 245.40 117.61 249.51 121.50
  Q 249.58 121.56 249.64 121.49
  Q 249.72 121.40 249.82 121.31
  Q 250.06 121.11 249.86 120.86
  Q 246.06 116.18 240.02 115.66
  L 239.66 104.02
  Q 240.03 103.24 241.97 103.02
  Z
  M 242.46 129.46
  A 0.46 0.46 0.0 0 1 242.48 129.95
  L 240.57 133.11
  A 0.46 0.46 0.0 0 0 241.13 133.78
  L 244.11 132.62
  A 0.46 0.46 0.0 0 1 244.66 132.80
  L 246.65 135.97
  A 0.46 0.46 0.0 0 0 247.50 135.72
  L 247.50 131.49
  A 0.46 0.46 0.0 0 1 247.85 131.05
  L 250.86 130.32
  A 0.46 0.46 0.0 0 0 250.87 129.43
  L 247.88 128.63
  A 0.46 0.46 0.0 0 1 247.54 128.20
  L 247.45 123.99
  A 0.46 0.46 0.0 0 0 246.59 123.78
  L 244.86 126.93
  A 0.46 0.46 0.0 0 1 244.33 127.15
  L 241.24 126.24
  A 0.46 0.46 0.0 0 0 240.73 126.94
  L 242.46 129.46
  Z"
/>
<path fill="#89b199" d="
  M 239.66 104.02
  L 240.02 115.66
  C 231.86 117.10 225.79 123.64 227.12 132.30
  Q 224.53 130.11 222.94 128.02
  C 216.65 119.74 222.56 109.26 231.22 105.93
  Q 235.33 104.34 239.66 104.02
  Z"
/>
<path fill="#000000" d="
  M 353.07 110.73
  L 355.76 109.45
  A 0.68 0.68 0.0 0 1 356.67 109.78
  L 357.84 112.32
  A 0.68 0.68 0.0 0 1 357.53 113.21
  L 355.45 114.28
  A 0.68 0.68 0.0 0 1 354.54 114.00
  L 353.39 111.91
  A 0.68 0.68 0.0 0 0 352.47 111.64
  L 350.08 112.93
  A 0.68 0.68 0.0 0 1 349.18 112.68
  L 347.74 110.30
  A 0.68 0.68 0.0 0 1 348.01 109.35
  L 350.16 108.22
  A 0.68 0.68 0.0 0 1 351.07 108.48
  L 352.19 110.45
  A 0.68 0.68 0.0 0 0 353.07 110.73
  Z"
/>
<path fill="#000000" d="
  M 135.48 110.45
  A 1.77 1.34 58.4 0 1 135.18 113.58
  Q 134.88 113.46 134.34 113.49
  Q 131.95 113.62 133.08 111.50
  Q 133.97 109.82 135.48 110.45
  Z"
/>
<ellipse fill="#000000" cx="0.00" cy="0.00" transform="translate(130.72,114.49) rotate(-33.8)" rx="1.86" ry="1.44"/>
<path fill="#000000" d="
  M 56.14 173.11
  C 53.85 179.52 46.40 174.94 45.63 170.18
  Q 45.55 169.73 45.75 169.31
  C 47.45 165.79 50.84 167.58 53.64 168.76
  Q 54.12 168.97 54.38 168.51
  L 57.21 163.53
  A 0.85 0.84 -58.6 0 0 56.95 162.41
  L 53.52 160.12
  A 0.50 0.50 0.0 0 1 53.81 159.21
  Q 55.12 159.26 56.29 159.77
  A 2.01 1.93 -36.1 0 0 57.32 159.91
  Q 62.26 159.22 62.85 154.08
  Q 62.93 153.43 62.36 153.09
  L 59.40 151.36
  A 0.67 0.67 0.0 0 1 59.17 150.42
  Q 59.45 149.99 60.02 150.21
  C 62.23 151.06 66.06 152.60 66.55 149.15
  Q 66.64 148.51 66.08 148.20
  Q 64.18 147.15 61.98 147.58
  A 0.65 0.64 -19.0 0 1 61.30 147.25
  L 60.45 145.64
  A 0.48 0.48 0.0 0 1 60.92 144.94
  Q 64.34 145.26 66.98 147.41
  A 1.32 1.32 0.0 0 0 68.85 147.21
  L 74.03 140.72
  A 0.53 0.53 0.0 0 0 73.95 139.98
  Q 71.24 137.83 67.77 138.28
  Q 67.16 138.36 66.90 137.80
  L 65.67 135.09
  Q 65.33 134.33 66.15 134.45
  C 70.15 135.06 71.94 136.34 75.02 138.82
  A 0.51 0.50 -49.5 0 0 75.73 138.76
  L 81.42 132.34
  A 0.65 0.64 -46.7 0 0 81.40 131.45
  Q 79.00 129.06 75.52 129.25
  Q 74.90 129.28 74.65 128.71
  L 73.67 126.50
  A 0.74 0.74 0.0 0 1 74.49 125.47
  Q 78.76 126.34 81.71 129.60
  A 1.00 0.99 -42.6 0 0 83.14 129.65
  L 94.24 119.21
  A 0.36 0.36 0.0 0 0 93.99 118.59
  Q 87.01 118.60 82.16 123.39
  A 0.58 0.57 -24.6 0 1 81.18 123.03
  C 80.50 113.67 90.96 114.54 97.64 114.47
  C 98.76 114.46 99.46 114.08 100.30 113.44
  A 0.61 0.60 48.1 0 1 101.09 113.49
  L 103.06 115.42
  A 0.63 0.62 45.9 0 1 103.05 116.32
  Q 94.93 124.04 86.79 131.68
  C 85.87 132.54 85.69 133.44 84.98 134.23
  Q 77.16 142.96 69.97 152.21
  Q 69.02 153.42 67.26 154.15
  Q 66.74 154.36 66.67 154.91
  Q 65.93 160.47 61.15 163.36
  Q 60.74 163.61 60.67 164.09
  Q 60.18 167.58 57.74 170.23
  A 0.43 0.43 0.0 0 0 57.74 170.81
  C 65.43 178.75 64.09 184.43 56.07 191.20
  A 0.36 0.36 0.0 0 1 55.48 190.91
  Q 55.50 190.30 56.01 189.79
  C 61.58 184.25 59.71 179.58 57.42 173.11
  A 0.68 0.68 0.0 0 0 56.14 173.11
  Z
  M 52.73 170.35
  Q 50.74 169.35 49.02 170.75
  A 1.51 1.50 15.4 0 0 50.49 173.33
  Q 52.22 172.70 52.98 171.05
  A 0.53 0.53 0.0 0 0 52.73 170.35
  Z"
/>
<path fill="#fc0000" d="
  M 240.02 115.66
  Q 246.06 116.18 249.86 120.86
  Q 250.06 121.11 249.82 121.31
  Q 249.72 121.40 249.64 121.49
  Q 249.58 121.56 249.51 121.50
  Q 245.40 117.61 239.49 120.04
  Q 237.43 121.87 235.75 124.42
  Q 234.06 127.01 234.01 129.75
  Q 233.92 136.32 239.70 139.48
  Q 241.62 140.69 244.25 140.53
  C 246.33 140.40 247.87 139.50 249.77 138.45
  A 0.26 0.26 0.0 0 1 250.10 138.85
  Q 247.76 141.76 244.31 143.26
  A 0.51 0.50 87.2 0 0 244.05 143.55
  Q 243.88 144.01 244.39 144.19
  Q 242.33 143.89 240.34 144.58
  Q 229.90 143.02 227.12 132.30
  C 225.79 123.64 231.86 117.10 240.02 115.66
  Z"
/>
<path fill="#02421d" d="
  M 239.49 120.04
  L 239.70 139.48
  Q 233.92 136.32 234.01 129.75
  Q 234.06 127.01 235.75 124.42
  Q 237.43 121.87 239.49 120.04
  Z"
/>
<path fill="#fc0000" d="
  M 242.46 129.46
  L 240.73 126.94
  A 0.46 0.46 0.0 0 1 241.24 126.24
  L 244.33 127.15
  A 0.46 0.46 0.0 0 0 244.86 126.93
  L 246.59 123.78
  A 0.46 0.46 0.0 0 1 247.45 123.99
  L 247.54 128.20
  A 0.46 0.46 0.0 0 0 247.88 128.63
  L 250.87 129.43
  A 0.46 0.46 0.0 0 1 250.86 130.32
  L 247.85 131.05
  A 0.46 0.46 0.0 0 0 247.50 131.49
  L 247.50 135.72
  A 0.46 0.46 0.0 0 1 246.65 135.97
  L 244.66 132.80
  A 0.46 0.46 0.0 0 0 244.11 132.62
  L 241.13 133.78
  A 0.46 0.46 0.0 0 1 240.57 133.11
  L 242.48 129.95
  A 0.46 0.46 0.0 0 0 242.46 129.46
  Z"
/>
<rect fill="#000000" x="-2.11" y="-1.92" transform="translate(96.95,129.79) rotate(-17.3)" width="4.22" height="3.84" rx="0.81"/>
<rect fill="#000000" x="-2.09" y="-1.87" transform="translate(59.58,130.20) rotate(-22.9)" width="4.18" height="3.74" rx="0.78"/>
<path fill="#000000" d="
  M 418.30 135.74
  L 421.29 135.42
  Q 422.07 135.34 422.17 136.11
  L 422.51 138.65
  Q 422.61 139.40 421.85 139.50
  L 419.66 139.79
  Q 418.91 139.89 418.79 139.15
  L 418.38 136.70
  A 0.57 0.56 -17.8 0 0 417.58 136.29
  Q 415.87 137.11 414.99 136.83
  A 2.54 1.66 48.6 0 1 414.38 132.59
  Q 415.41 132.82 416.16 132.46
  A 0.69 0.69 0.0 0 1 417.14 132.95
  L 417.61 135.23
  A 0.64 0.63 -8.4 0 0 418.30 135.74
  Z"
/>
<rect fill="#000000" x="-2.08" y="-1.87" transform="translate(57.94,135.55) rotate(-27.1)" width="4.16" height="3.74" rx="0.73"/>
<rect fill="#000000" x="-2.17" y="-1.90" transform="translate(87.95,138.87) rotate(-22.9)" width="4.34" height="3.80" rx="0.64"/>
<path fill="#000000" d="
  M 424.09 151.76
  C 421.47 147.80 423.34 142.21 428.18 141.10
  A 1.04 1.04 0.0 0 1 429.44 142.25
  C 428.53 148.91 425.05 156.02 421.76 161.94
  A 0.63 0.62 -80.8 0 0 422.42 162.86
  Q 427.77 161.85 432.28 158.91
  Q 432.80 158.57 433.06 158.01
  Q 434.32 155.29 437.34 155.10
  Q 437.87 155.07 437.85 155.60
  L 437.70 159.65
  Q 437.69 160.15 437.24 160.39
  Q 435.41 161.34 433.60 160.64
  Q 433.08 160.44 432.62 160.74
  Q 427.30 164.27 420.89 164.66
  Q 420.36 164.69 420.00 165.09
  C 418.12 167.19 417.36 169.11 414.12 170.20
  Q 413.68 170.35 413.38 169.99
  L 407.49 162.90
  Q 406.94 162.24 407.72 161.87
  L 410.01 160.79
  Q 410.41 160.60 410.83 160.75
  L 417.95 163.29
  A 1.07 1.06 -67.0 0 0 419.27 162.75
  L 424.14 152.56
  Q 424.34 152.15 424.09 151.76
  Z
  M 417.26 164.56
  L 413.43 163.49
  A 0.49 0.48 -10.6 0 0 412.91 164.24
  L 414.77 166.74
  A 0.79 0.79 0.0 0 0 415.58 167.03
  Q 417.20 166.66 417.54 165.02
  A 0.39 0.39 0.0 0 0 417.26 164.56
  Z"
/>
<rect fill="#000000" x="-2.14" y="-1.87" transform="translate(86.01,144.13) rotate(-21.3)" width="4.28" height="3.74" rx="0.79"/>
<path fill="#3bb54b" d="
  M 308.64 279.16
  C 301.07 285.73 289.15 270.97 285.77 265.47
  C 266.81 234.64 264.98 198.04 275.45 163.99
  Q 276.68 159.98 279.09 156.48
  A 0.72 0.72 0.0 0 1 280.40 156.94
  C 279.62 168.80 277.29 178.85 279.57 191.78
  Q 282.30 207.35 286.90 220.58
  C 290.93 232.17 298.91 242.98 305.27 253.66
  C 309.43 260.64 316.38 272.43 308.64 279.16
  Z"
/>
<path fill="#000000" d="
  M 401.94 165.91
  C 402.42 163.83 406.18 164.96 407.04 165.69
  A 1.09 1.09 0.0 0 1 407.43 166.48
  Q 407.49 167.79 406.29 167.77
  Q 405.71 167.76 405.46 167.25
  L 404.79 165.87
  A 0.53 0.53 0.0 0 0 403.79 166.03
  Q 403.54 167.84 404.71 169.29
  Q 404.96 169.60 404.62 169.80
  L 404.32 169.97
  Q 404.23 170.03 404.14 169.96
  L 399.90 166.84
  A 0.38 0.38 0.0 0 1 400.16 166.15
  L 401.42 166.28
  Q 401.84 166.32 401.94 165.91
  Z"
/>
<path fill="#000000" d="
  M 444.50 167.40
  C 439.24 171.45 426.98 181.01 421.24 179.71
  Q 420.71 179.59 421.19 179.32
  Q 431.20 173.70 440.43 166.94
  Q 441.76 165.96 444.40 166.83
  Q 444.99 167.02 444.50 167.40
  Z"
/>
<path fill="#3bb54b" d="
  M 327.17 296.95
  C 313.64 301.52 313.28 278.58 314.04 271.49
  C 317.80 236.60 335.91 208.01 363.52 187.04
  Q 368.25 183.44 373.32 181.38
  A 0.56 0.56 0.0 0 1 373.96 182.26
  C 369.65 187.24 364.61 192.04 361.07 196.93
  Q 342.02 223.26 338.39 256.01
  Q 337.15 267.23 336.52 278.50
  C 336.20 284.23 333.42 294.85 327.17 296.95
  Z"
/>
<circle fill="#000000" cx="241.55" cy="214.81" r="20.18"/>
<path fill="#fc0000" d="
  M 211.56 219.69
  Q 214.50 221.55 218.45 228.06
  C 225.78 240.16 231.80 255.02 242.00 266.96
  C 249.23 275.42 259.96 283.94 269.33 291.66
  Q 270.11 292.30 270.39 292.84
  A 0.66 0.66 0.0 0 1 269.53 293.75
  C 258.11 288.34 245.04 282.42 235.57 276.04
  C 221.50 266.55 200.55 246.22 198.76 228.26
  C 198.00 220.66 204.77 215.38 211.56 219.69
  Z"
/>
<path fill="#3bb54b" d="
  M 157.82 271.98
  C 162.36 268.12 170.98 268.45 172.49 275.53
  C 177.33 298.24 164.51 325.09 151.34 342.11
  C 138.94 358.14 121.48 374.15 102.30 381.52
  A 0.87 0.86 70.5 0 1 101.16 380.97
  Q 101.08 380.71 101.67 380.16
  C 111.51 370.94 120.84 364.00 127.92 352.12
  C 136.32 338.02 142.70 324.62 146.09 308.66
  C 148.17 298.86 149.76 287.92 153.60 278.68
  Q 155.60 273.87 157.82 271.98
  Z"
/>
<path fill="#3bb54b" d="
  M 180.54 280.27
  C 189.51 271.06 203.57 291.87 206.57 297.44
  C 222.15 326.42 223.95 359.91 214.57 391.15
  Q 212.98 396.46 210.26 401.28
  Q 209.94 401.83 209.52 401.99
  A 0.58 0.58 0.0 0 1 208.74 401.39
  C 209.77 392.00 211.13 382.72 210.38 372.87
  C 209.22 357.73 204.38 342.15 198.04 328.41
  C 193.36 318.27 184.85 306.83 179.72 297.00
  C 177.59 292.94 176.82 284.09 180.54 280.27
  Z"
/>
<circle fill="#000000" cx="236.87" cy="305.24" r="20.18"/>
<path fill="#fc0000" d="
  M 338.71 390.56
  C 310.11 381.93 280.88 371.99 263.53 345.50
  Q 260.86 341.43 259.50 336.74
  C 257.79 330.83 261.07 324.46 267.99 325.24
  C 275.85 326.13 288.12 345.31 292.72 351.54
  Q 304.75 367.84 322.02 378.43
  Q 329.88 383.24 337.76 388.03
  Q 338.87 388.71 339.47 389.39
  A 0.73 0.72 -12.1 0 1 338.71 390.56
  Z"
/>
<path fill="#000000" d="
  M 430.29 341.09
  Q 430.03 339.22 431.39 337.82
  Q 431.73 337.47 432.20 337.63
  Q 439.57 340.16 446.94 342.82
  C 452.51 344.82 457.02 348.57 454.40 355.23
  C 451.63 362.23 446.49 361.51 440.17 359.36
  Q 433.27 357.01 426.39 354.53
  Q 425.79 354.32 425.74 353.68
  Q 425.61 351.78 426.93 350.49
  A 0.87 0.86 32.5 0 1 427.84 350.29
  Q 435.67 353.05 443.50 355.75
  C 450.36 358.12 453.25 349.95 447.24 347.76
  Q 439.08 344.77 430.91 341.85
  Q 430.37 341.66 430.29 341.09
  Z"
/>
<path fill="#000000" d="
  M 25.66 345.26
  L 25.25 342.91
  A 0.98 0.98 0.0 0 1 26.16 341.76
  L 52.43 340.43
  A 0.98 0.98 0.0 0 1 53.40 341.06
  L 54.78 344.79
  A 0.98 0.98 0.0 0 1 54.41 345.94
  L 32.43 360.87
  A 0.98 0.98 0.0 0 1 30.94 360.34
  L 30.14 357.62
  A 0.98 0.98 0.0 0 1 30.53 356.53
  L 34.56 353.81
  A 0.98 0.98 0.0 0 0 34.94 352.68
  L 32.81 346.35
  A 0.98 0.98 0.0 0 0 31.81 345.69
  L 26.70 346.07
  A 0.98 0.98 0.0 0 1 25.66 345.26
  Z
  M 37.62 345.21
  A 0.42 0.42 0.0 0 0 37.25 345.77
  L 38.81 350.44
  A 0.42 0.42 0.0 0 0 39.44 350.66
  L 47.66 345.31
  A 0.42 0.42 0.0 0 0 47.40 344.54
  L 37.62 345.21
  Z"
/>
<path fill="#000000" d="
  M 58.39 355.88
  C 60.80 357.66 60.35 359.59 57.70 360.69
  Q 48.86 364.36 40.24 368.37
  A 0.80 0.79 -25.1 0 0 39.85 369.43
  L 42.27 374.61
  A 0.77 0.77 0.0 0 1 41.91 375.62
  L 39.09 376.99
  A 0.69 0.68 -25.1 0 1 38.17 376.66
  L 34.29 368.07
  A 1.87 1.87 0.0 0 1 35.24 365.59
  L 57.52 355.78
  Q 57.98 355.58 58.39 355.88
  Z"
/>
<path fill="#000000" d="
  M 437.52 378.45
  C 439.52 376.64 444.67 373.27 440.36 370.16
  C 438.14 368.56 435.05 371.26 433.14 372.42
  C 424.63 377.60 414.62 367.25 422.78 360.21
  C 424.54 358.69 426.66 359.36 427.99 360.95
  A 0.56 0.56 0.0 0 1 427.84 361.79
  C 425.58 363.13 422.37 366.29 425.59 368.39
  C 429.55 370.97 434.14 362.31 440.73 365.13
  C 452.26 370.06 443.38 385.55 437.48 379.05
  Q 437.20 378.73 437.52 378.45
  Z"
/>
<path fill="#000000" d="
  M 66.35 385.23
  C 69.56 367.15 39.87 378.95 50.00 389.66
  A 0.91 0.90 -35.9 0 0 51.10 389.83
  L 55.81 387.25
  A 0.62 0.61 -29.7 0 0 56.05 386.39
  L 54.51 383.81
  A 0.84 0.83 44.7 0 1 54.50 382.97
  Q 55.45 381.32 57.50 381.27
  Q 57.94 381.26 58.16 381.65
  L 61.28 387.24
  Q 62.14 388.78 60.60 389.64
  L 50.83 395.06
  A 1.63 1.62 46.9 0 1 49.16 395.00
  C 42.35 390.56 40.84 382.03 47.36 376.38
  C 65.71 360.48 77.26 385.21 66.83 385.77
  A 0.46 0.46 0.0 0 1 66.35 385.23
  Z"
/>
<path fill="#000000" d="
  M 410.09 386.43
  A 1.05 1.05 0.0 0 1 409.69 384.98
  L 416.74 372.82
  Q 416.99 372.40 417.44 372.24
  Q 419.35 371.57 420.90 373.80
  Q 421.18 374.21 420.94 374.64
  L 418.92 378.29
  A 0.84 0.83 29.4 0 0 419.24 379.41
  L 437.06 389.71
  Q 437.87 390.18 437.70 391.10
  Q 437.39 392.89 435.90 393.65
  Q 435.38 393.92 434.88 393.62
  L 417.01 383.33
  A 0.91 0.91 0.0 0 0 415.77 383.67
  L 413.56 387.58
  Q 413.24 388.15 412.66 387.84
  L 410.09 386.43
  Z"
/>
<path fill="#000000" d="
  M 64.40 399.62
  L 59.19 403.28
  A 0.75 0.74 55.2 0 0 59.01 404.31
  L 62.81 409.67
  Q 63.20 410.22 62.83 410.78
  Q 61.88 412.21 60.22 412.65
  A 0.88 0.88 0.0 0 1 59.27 412.30
  L 53.36 403.58
  A 1.38 1.37 55.8 0 1 53.72 401.68
  L 73.92 387.71
  A 1.27 1.26 -34.9 0 1 75.67 388.02
  L 81.89 396.86
  A 0.80 0.80 0.0 0 1 81.70 397.97
  L 79.31 399.69
  Q 78.75 400.09 78.35 399.53
  L 74.22 393.66
  Q 73.89 393.20 73.42 393.52
  L 68.92 396.58
  A 0.62 0.62 0.0 0 0 68.76 397.45
  L 72.14 402.26
  Q 72.60 402.92 71.91 403.34
  L 69.58 404.77
  Q 68.98 405.14 68.57 404.55
  L 65.27 399.78
  Q 64.91 399.26 64.40 399.62
  Z"
/>
<rect fill="#000000" x="-13.77" y="-2.23" transform="translate(417.64,397.14) rotate(33.7)" width="27.54" height="4.46" rx="1.41"/>
<path fill="#000000" d="
  M 401.44 400.31
  C 398.78 398.52 401.48 394.96 403.98 396.79
  Q 411.19 402.07 418.35 407.38
  C 422.45 410.42 424.80 415.88 418.65 418.54
  A 0.76 0.75 52.9 0 1 417.89 418.43
  L 415.20 416.22
  A 0.56 0.56 0.0 0 1 415.40 415.25
  Q 417.14 414.76 417.30 413.02
  A 1.01 1.00 22.0 0 0 416.92 412.14
  Q 405.37 402.96 401.44 400.31
  Z"
/>
<path fill="#000000" d="
  M 80.72 419.37
  Q 78.53 425.38 74.58 430.43
  A 0.56 0.56 0.0 0 1 73.70 430.43
  L 71.49 427.68
  A 0.88 0.86 -45.1 0 1 71.50 426.59
  Q 74.81 422.50 76.67 417.80
  A 1.81 1.80 -9.3 0 0 73.83 415.76
  L 67.17 421.35
  Q 66.56 421.86 66.05 421.25
  L 64.23 419.05
  A 0.82 0.82 0.0 0 1 64.33 417.90
  L 83.74 401.71
  A 1.29 1.29 0.0 0 1 85.56 401.88
  C 88.84 405.82 93.94 409.93 90.18 415.66
  Q 87.12 420.33 81.25 419.08
  Q 80.85 418.99 80.72 419.37
  Z
  M 83.66 407.55
  L 78.97 411.39
  A 0.90 0.90 0.0 0 0 78.85 412.66
  L 79.73 413.73
  A 3.65 3.18 50.7 0 0 84.50 414.54
  L 85.66 413.59
  A 3.65 3.18 50.7 0 0 85.81 408.75
  L 84.93 407.68
  A 0.90 0.90 0.0 0 0 83.66 407.55
  Z"
/>
<path fill="#000000" d="
  M 397.17 441.39
  C 391.06 442.40 380.63 429.88 376.59 425.56
  Q 376.14 425.08 376.62 424.63
  L 378.84 422.57
  A 0.60 0.59 -43.9 0 1 379.66 422.58
  C 382.90 425.75 390.98 435.37 394.89 436.31
  C 397.99 437.05 400.68 434.51 400.01 431.41
  C 399.30 428.15 389.53 419.53 386.76 416.72
  Q 385.28 415.22 387.75 413.42
  A 1.47 1.46 49.1 0 1 389.64 413.56
  C 393.39 417.21 404.03 426.11 404.71 431.33
  C 405.31 435.91 401.57 440.67 397.17 441.39
  Z"
/>
<rect fill="#000000" x="-2.20" y="-4.32" transform="translate(406.51,417.57) rotate(40.5)" width="4.40" height="8.64" rx="1.25"/>
<rect fill="#000000" x="-13.72" y="-2.26" transform="translate(89.17,426.49) rotate(-43.9)" width="27.44" height="4.52" rx="1.17"/>
<path fill="#000000" d="
  M 98.11 445.56
  L 92.91 440.89
  A 0.66 0.65 49.0 0 0 92.11 440.83
  L 87.62 443.85
  A 0.69 0.69 0.0 0 1 86.80 443.80
  L 84.40 441.74
  A 0.58 0.58 0.0 0 1 84.46 440.80
  L 105.89 426.91
  A 3.51 3.51 0.0 0 1 110.94 431.41
  L 99.85 453.88
  A 0.98 0.98 0.0 0 1 98.30 454.15
  L 96.23 452.19
  A 0.82 0.82 0.0 0 1 96.06 451.25
  L 98.29 446.48
  A 0.79 0.78 -56.4 0 0 98.11 445.56
  Z
  M 96.50 437.78
  A 0.38 0.38 0.0 0 0 96.46 438.38
  L 100.29 441.81
  A 0.38 0.38 0.0 0 0 100.89 441.70
  L 105.40 432.79
  A 0.38 0.38 0.0 0 0 104.85 432.31
  L 96.50 437.78
  Z"
/>
<path fill="#000000" d="
  M 382.30 449.90
  A 1.57 1.57 0.0 0 0 382.86 447.45
  L 369.51 431.73
  A 0.77 0.76 52.3 0 1 369.65 430.61
  L 372.00 428.93
  Q 372.58 428.52 373.05 429.05
  Q 379.80 436.68 386.16 444.60
  Q 390.96 450.59 384.31 454.32
  A 1.02 1.01 45.3 0 1 383.29 454.31
  Q 381.53 453.27 380.44 451.48
  Q 380.08 450.90 380.70 450.62
  L 382.30 449.90
  Z"
/>
<path fill="#000000" d="
  M 118.32 446.36
  Q 118.80 444.13 117.47 445.99
  L 107.57 459.86
  A 0.83 0.82 36.7 0 1 106.39 460.03
  L 104.47 458.55
  Q 103.92 458.13 104.32 457.57
  L 118.24 437.78
  A 2.20 2.20 0.0 0 1 120.27 436.87
  C 124.32 437.33 124.31 440.37 123.62 443.69
  Q 122.07 451.16 120.23 458.47
  A 0.28 0.28 0.0 0 0 120.73 458.70
  L 130.63 444.67
  Q 131.05 444.06 131.70 444.43
  L 133.83 445.65
  A 0.83 0.82 -57.5 0 1 134.09 446.84
  L 120.11 466.49
  A 3.11 3.11 0.0 0 1 114.54 464.04
  L 118.32 446.36
  Z"
/>
<path fill="#000000" d="
  M 359.25 453.69
  L 364.03 450.40
  A 0.75 0.74 54.7 0 1 365.06 450.58
  L 366.81 453.01
  A 0.80 0.78 -34.8 0 1 366.60 454.13
  L 362.04 457.21
  A 1.02 1.02 0.0 0 0 361.77 458.62
  L 366.54 465.69
  A 1.71 1.71 0.0 0 1 365.89 468.17
  Q 363.42 469.42 362.44 467.65
  C 358.76 460.97 353.41 454.44 349.29 448.12
  A 1.74 1.74 0.0 0 1 349.78 445.73
  L 357.74 440.38
  Q 358.37 439.96 358.81 440.57
  L 360.60 443.07
  Q 361.02 443.66 360.43 444.07
  L 355.36 447.56
  A 0.91 0.90 -34.3 0 0 355.12 448.81
  L 358.27 453.51
  Q 358.67 454.10 359.25 453.69
  Z"
/>
<path fill="#000000" d="
  M 351.09 477.01
  C 338.61 488.43 323.29 460.19 335.65 453.55
  C 343.53 449.31 348.30 454.58 351.69 460.87
  C 354.46 466.01 356.09 472.45 351.09 477.01
  Z
  M 347.0228 474.4506
  A 9.72 5.81 63.0 0 0 347.7867 463.1523
  A 9.72 5.81 63.0 0 0 338.1972 457.1294
  A 9.72 5.81 63.0 0 0 337.4333 468.4277
  A 9.72 5.81 63.0 0 0 347.0228 474.4506
  Z"
/>
<path fill="#000000" d="
  M 147.10 459.25
  L 144.22 464.70
  A 0.60 0.59 27.9 0 0 144.47 465.50
  L 149.68 468.26
  A 0.82 0.81 28.4 0 1 150.02 469.37
  L 148.56 472.02
  A 0.68 0.68 0.0 0 1 147.65 472.29
  L 142.82 469.74
  A 1.13 1.13 0.0 0 0 141.28 470.23
  L 137.16 478.35
  Q 136.86 478.95 136.26 478.64
  L 133.45 477.21
  A 0.74 0.74 0.0 0 1 133.13 476.21
  L 144.60 454.18
  A 1.80 1.79 -62.2 0 1 147.03 453.42
  L 155.44 457.86
  Q 155.97 458.14 155.88 458.73
  Q 155.58 460.75 154.01 461.91
  Q 153.63 462.19 153.23 461.97
  L 147.78 459.04
  Q 147.34 458.80 147.10 459.25
  Z"
/>
<path fill="#000000" d="
  M 165.67 475.51
  L 164.67 477.66
  A 0.97 0.97 0.0 0 1 163.42 478.15
  L 158.59 476.14
  A 0.97 0.97 0.0 0 0 157.32 476.67
  L 155.14 481.94
  A 0.97 0.97 0.0 0 0 155.66 483.20
  L 161.67 485.71
  A 0.97 0.97 0.0 0 1 162.19 486.98
  L 161.24 489.25
  A 0.97 0.97 0.0 0 1 159.97 489.76
  L 149.87 485.50
  A 0.97 0.97 0.0 0 1 149.35 484.23
  L 159.14 460.79
  A 0.97 0.97 0.0 0 1 160.41 460.27
  L 170.53 464.53
  A 0.97 0.97 0.0 0 1 171.03 465.83
  L 169.98 468.11
  A 0.97 0.97 0.0 0 1 168.71 468.59
  L 162.87 466.07
  A 0.97 0.97 0.0 0 0 161.59 466.59
  L 159.80 470.92
  A 0.97 0.97 0.0 0 0 160.32 472.18
  L 165.16 474.21
  A 0.97 0.97 0.0 0 1 165.67 475.51
  Z"
/>
<path fill="#000000" d="
  M 317.70 481.15
  A 0.41 0.41 0.0 0 0 318.40 480.75
  L 313.02 465.71
  Q 312.82 465.17 313.14 464.69
  Q 314.14 463.20 316.11 463.51
  Q 316.59 463.58 316.75 464.04
  L 324.97 487.27
  A 1.57 1.57 0.0 0 1 324.59 488.91
  C 322.37 491.10 320.13 490.29 318.16 488.17
  Q 312.24 481.80 306.70 475.46
  A 0.34 0.34 0.0 0 0 306.12 475.80
  L 311.88 492.29
  A 1.51 1.51 0.0 0 1 310.74 494.27
  L 309.17 494.57
  Q 308.50 494.70 308.27 494.05
  Q 304.23 482.90 300.31 471.74
  C 298.89 467.67 304.20 466.60 306.52 468.92
  Q 312.40 474.79 317.70 481.15
  Z"
/>
<path fill="#000000" d="
  M 174.39 467.98
  A 1.74 1.74 0.0 0 1 176.57 466.83
  L 181.65 468.40
  A 11.28 11.06 -72.8 0 1 188.88 482.45
  L 187.43 487.13
  A 11.28 11.06 -72.8 0 1 173.53 494.63
  L 168.45 493.06
  A 1.74 1.74 0.0 0 1 167.30 490.88
  L 174.39 467.98
  Z
  M 177.50 472.79
  L 172.57 488.64
  A 1.04 1.04 0.0 0 0 173.25 489.94
  L 174.77 490.41
  A 7.90 6.51 -72.7 0 0 183.34 484.80
  L 184.19 482.05
  A 7.90 6.51 -72.7 0 0 180.33 472.58
  L 178.81 472.10
  A 1.04 1.04 0.0 0 0 177.50 472.79
  Z"
/>
<path fill="#000000" d="
  M 297.15 496.13
  C 293.79 500.85 284.92 502.35 281.40 496.14
  C 277.81 489.82 274.56 477.51 283.09 473.15
  C 296.55 466.26 302.69 488.34 297.15 496.13
  Z
  M 290.4379 495.6135
  A 9.77 5.83 78.2 0 0 294.1468 484.8578
  A 9.77 5.83 78.2 0 0 286.4421 476.4865
  A 9.77 5.83 78.2 0 0 282.7332 487.2422
  A 9.77 5.83 78.2 0 0 290.4379 495.6135
  Z"
/>
<path fill="#000000" d="
  M 199.24 484.16
  L 204.28 485.10
  A 0.95 0.95 0.0 0 1 205.04 486.19
  L 204.61 488.74
  A 0.95 0.95 0.0 0 1 203.47 489.51
  L 198.33 488.42
  A 0.95 0.95 0.0 0 0 197.21 489.14
  L 196.00 494.68
  A 0.95 0.95 0.0 0 0 196.75 495.82
  L 203.13 497.02
  A 0.95 0.95 0.0 0 1 203.89 498.10
  L 203.49 500.70
  A 0.95 0.95 0.0 0 1 202.36 501.49
  L 191.44 499.23
  A 0.95 0.95 0.0 0 1 190.70 498.11
  L 195.75 473.28
  A 0.95 0.95 0.0 0 1 196.86 472.53
  L 207.80 474.60
  A 0.95 0.95 0.0 0 1 208.55 475.76
  L 207.91 478.35
  A 0.95 0.95 0.0 0 1 206.79 479.05
  L 200.52 477.72
  A 0.95 0.95 0.0 0 0 199.39 478.46
  L 198.48 483.04
  A 0.95 0.95 0.0 0 0 199.24 484.16
  Z"
/>
<rect fill="#000000" x="-2.32" y="-13.79" transform="translate(271.28,489.02) rotate(-8.1)" width="4.64" height="27.58" rx="1.12"/>
<path fill="#000000" d="
  M 215.29 492.84
  L 214.32 502.21
  A 0.91 0.91 0.0 0 1 213.34 503.02
  L 210.37 502.75
  A 0.73 0.73 0.0 0 1 209.70 501.94
  L 212.40 476.48
  A 0.81 0.81 0.0 0 1 213.19 475.76
  C 218.21 475.65 226.86 475.72 226.76 483.00
  Q 226.69 488.62 223.06 491.04
  Q 222.65 491.31 222.84 491.77
  Q 225.26 497.56 225.93 503.84
  A 0.64 0.64 0.0 0 1 225.21 504.54
  L 221.81 504.10
  A 0.94 0.93 88.2 0 1 221.02 503.35
  C 220.24 499.22 220.01 492.29 215.93 492.27
  A 0.64 0.63 -86.5 0 0 215.29 492.84
  Z
  M 216.45 481.12
  L 215.77 486.96
  A 0.96 0.96 0.0 0 0 216.61 488.03
  L 217.73 488.16
  A 3.87 3.56 6.7 0 0 221.99 485.08
  L 222.07 484.40
  A 3.87 3.56 6.7 0 0 218.64 480.41
  L 217.52 480.28
  A 0.96 0.96 0.0 0 0 216.45 481.12
  Z"
/>
<path fill="#000000" d="
  M 248.44 481.28
  L 248.22 478.65
  A 1.09 1.09 0.0 0 1 249.23 477.47
  L 263.85 476.39
  A 1.09 1.09 0.0 0 1 265.01 477.38
  L 265.25 480.07
  A 1.09 1.09 0.0 0 1 264.16 481.25
  L 260.36 481.25
  A 1.09 1.09 0.0 0 0 259.28 482.42
  L 260.78 503.07
  A 1.09 1.09 0.0 0 1 259.83 504.24
  L 257.46 504.52
  A 1.09 1.09 0.0 0 1 256.24 503.52
  L 254.65 482.81
  A 1.09 1.09 0.0 0 0 253.43 481.81
  L 249.66 482.27
  A 1.09 1.09 0.0 0 1 248.44 481.28
  Z"
/>
<path fill="#000000" d="
  M 230.02 504.56
  Q 228.98 504.13 229.30 503.06
  L 236.71 478.01
  A 1.06 1.05 8.0 0 1 237.73 477.25
  L 241.69 477.25
  A 1.17 1.17 0.0 0 1 242.82 478.12
  L 249.54 503.70
  A 1.06 1.06 0.0 0 1 248.43 505.03
  L 245.44 504.80
  Q 244.83 504.75 244.69 504.16
  L 243.41 499.07
  A 0.74 0.74 0.0 0 0 242.69 498.51
  L 235.78 498.50
  A 0.78 0.77 8.7 0 0 235.04 499.04
  C 234.31 501.48 234.17 506.28 230.02 504.56
  Z
  M 236.35 493.78
  A 0.32 0.32 0.0 0 0 236.65 494.19
  L 241.86 494.30
  A 0.32 0.32 0.0 0 0 242.18 493.91
  L 239.80 483.95
  A 0.32 0.32 0.0 0 0 239.18 483.94
  L 236.35 493.78
  Z"
/>
</svg>
